%TF.GenerationSoftware,KiCad,Pcbnew,no-vcs-found-66b654f~60~ubuntu16.04.1*%
%TF.CreationDate,2017-09-18T15:45:39-04:00*%
%TF.ProjectId,rs232_interface_3x2,72733233325F696E746572666163655F,1.0*%
%TF.SameCoordinates,Original*%
%TF.FileFunction,Legend,Top*%
%TF.FilePolarity,Positive*%
%FSLAX46Y46*%
G04 Gerber Fmt 4.6, Leading zero omitted, Abs format (unit mm)*
G04 Created by KiCad (PCBNEW no-vcs-found-66b654f~60~ubuntu16.04.1) date Mon Sep 18 15:45:39 2017*
%MOMM*%
%LPD*%
G01*
G04 APERTURE LIST*
%ADD10C,0.508000*%
%ADD11C,0.254000*%
%ADD12C,0.228600*%
%ADD13C,0.190500*%
%ADD14C,0.381000*%
%ADD15C,3.556000*%
%ADD16O,1.854200X2.540000*%
%ADD17R,1.854200X2.540000*%
%ADD18O,1.600000X2.200000*%
%ADD19R,1.600000X2.200000*%
%ADD20O,5.000000X6.000000*%
G04 APERTURE END LIST*
D10*
X153724428Y-87980761D02*
X153821190Y-87884000D01*
X154014714Y-87787238D01*
X154498523Y-87787238D01*
X154692047Y-87884000D01*
X154788809Y-87980761D01*
X154885571Y-88174285D01*
X154885571Y-88367809D01*
X154788809Y-88658095D01*
X153627666Y-89819238D01*
X154885571Y-89819238D01*
D11*
X127697290Y-91518619D02*
X127697290Y-92244333D01*
X127648909Y-92389476D01*
X127552147Y-92486238D01*
X127407004Y-92534619D01*
X127310242Y-92534619D01*
X128132719Y-91615380D02*
X128181100Y-91567000D01*
X128277861Y-91518619D01*
X128519766Y-91518619D01*
X128616528Y-91567000D01*
X128664909Y-91615380D01*
X128713290Y-91712142D01*
X128713290Y-91808904D01*
X128664909Y-91954047D01*
X128084338Y-92534619D01*
X128713290Y-92534619D01*
X127745671Y-93780428D02*
X127407004Y-93780428D01*
X127407004Y-94312619D02*
X127407004Y-93296619D01*
X127890814Y-93296619D01*
X128277861Y-93780428D02*
X128616528Y-93780428D01*
X128761671Y-94312619D02*
X128277861Y-94312619D01*
X128277861Y-93296619D01*
X128761671Y-93296619D01*
X129197100Y-94312619D02*
X129197100Y-93296619D01*
X129535766Y-94022333D01*
X129874433Y-93296619D01*
X129874433Y-94312619D01*
X130309861Y-94022333D02*
X130793671Y-94022333D01*
X130213100Y-94312619D02*
X130551766Y-93296619D01*
X130890433Y-94312619D01*
X131712909Y-94312619D02*
X131229100Y-94312619D01*
X131229100Y-93296619D01*
X132051576Y-93780428D02*
X132390242Y-93780428D01*
X132535385Y-94312619D02*
X132051576Y-94312619D01*
X132051576Y-93296619D01*
X132535385Y-93296619D01*
X133696528Y-94264238D02*
X133841671Y-94312619D01*
X134083576Y-94312619D01*
X134180338Y-94264238D01*
X134228719Y-94215857D01*
X134277100Y-94119095D01*
X134277100Y-94022333D01*
X134228719Y-93925571D01*
X134180338Y-93877190D01*
X134083576Y-93828809D01*
X133890052Y-93780428D01*
X133793290Y-93732047D01*
X133744909Y-93683666D01*
X133696528Y-93586904D01*
X133696528Y-93490142D01*
X133744909Y-93393380D01*
X133793290Y-93345000D01*
X133890052Y-93296619D01*
X134131957Y-93296619D01*
X134277100Y-93345000D01*
X134906052Y-93296619D02*
X135099576Y-93296619D01*
X135196338Y-93345000D01*
X135293100Y-93441761D01*
X135341480Y-93635285D01*
X135341480Y-93973952D01*
X135293100Y-94167476D01*
X135196338Y-94264238D01*
X135099576Y-94312619D01*
X134906052Y-94312619D01*
X134809290Y-94264238D01*
X134712528Y-94167476D01*
X134664147Y-93973952D01*
X134664147Y-93635285D01*
X134712528Y-93441761D01*
X134809290Y-93345000D01*
X134906052Y-93296619D01*
X136357480Y-94215857D02*
X136309100Y-94264238D01*
X136163957Y-94312619D01*
X136067195Y-94312619D01*
X135922052Y-94264238D01*
X135825290Y-94167476D01*
X135776909Y-94070714D01*
X135728528Y-93877190D01*
X135728528Y-93732047D01*
X135776909Y-93538523D01*
X135825290Y-93441761D01*
X135922052Y-93345000D01*
X136067195Y-93296619D01*
X136163957Y-93296619D01*
X136309100Y-93345000D01*
X136357480Y-93393380D01*
X136792909Y-94312619D02*
X136792909Y-93296619D01*
X137373480Y-94312619D02*
X136938052Y-93732047D01*
X137373480Y-93296619D02*
X136792909Y-93877190D01*
X137808909Y-93780428D02*
X138147576Y-93780428D01*
X138292719Y-94312619D02*
X137808909Y-94312619D01*
X137808909Y-93296619D01*
X138292719Y-93296619D01*
X138583004Y-93296619D02*
X139163576Y-93296619D01*
X138873290Y-94312619D02*
X138873290Y-93296619D01*
X139453861Y-94264238D02*
X139599004Y-94312619D01*
X139840909Y-94312619D01*
X139937671Y-94264238D01*
X139986052Y-94215857D01*
X140034433Y-94119095D01*
X140034433Y-94022333D01*
X139986052Y-93925571D01*
X139937671Y-93877190D01*
X139840909Y-93828809D01*
X139647385Y-93780428D01*
X139550623Y-93732047D01*
X139502242Y-93683666D01*
X139453861Y-93586904D01*
X139453861Y-93490142D01*
X139502242Y-93393380D01*
X139550623Y-93345000D01*
X139647385Y-93296619D01*
X139889290Y-93296619D01*
X140034433Y-93345000D01*
X127407004Y-96090619D02*
X127407004Y-95074619D01*
X127648909Y-95074619D01*
X127794052Y-95123000D01*
X127890814Y-95219761D01*
X127939195Y-95316523D01*
X127987576Y-95510047D01*
X127987576Y-95655190D01*
X127939195Y-95848714D01*
X127890814Y-95945476D01*
X127794052Y-96042238D01*
X127648909Y-96090619D01*
X127407004Y-96090619D01*
X129003576Y-95993857D02*
X128955195Y-96042238D01*
X128810052Y-96090619D01*
X128713290Y-96090619D01*
X128568147Y-96042238D01*
X128471385Y-95945476D01*
X128423004Y-95848714D01*
X128374623Y-95655190D01*
X128374623Y-95510047D01*
X128423004Y-95316523D01*
X128471385Y-95219761D01*
X128568147Y-95123000D01*
X128713290Y-95074619D01*
X128810052Y-95074619D01*
X128955195Y-95123000D01*
X129003576Y-95171380D01*
X129439004Y-95558428D02*
X129777671Y-95558428D01*
X129922814Y-96090619D02*
X129439004Y-96090619D01*
X129439004Y-95074619D01*
X129922814Y-95074619D01*
X131422623Y-96477666D02*
X131374242Y-96429285D01*
X131277480Y-96284142D01*
X131229100Y-96187380D01*
X131180719Y-96042238D01*
X131132338Y-95800333D01*
X131132338Y-95606809D01*
X131180719Y-95364904D01*
X131229100Y-95219761D01*
X131277480Y-95123000D01*
X131374242Y-94977857D01*
X131422623Y-94929476D01*
X131809671Y-96090619D02*
X131809671Y-95074619D01*
X132196719Y-95074619D01*
X132293480Y-95123000D01*
X132341861Y-95171380D01*
X132390242Y-95268142D01*
X132390242Y-95413285D01*
X132341861Y-95510047D01*
X132293480Y-95558428D01*
X132196719Y-95606809D01*
X131809671Y-95606809D01*
X132825671Y-95558428D02*
X133164338Y-95558428D01*
X133309480Y-96090619D02*
X132825671Y-96090619D01*
X132825671Y-95074619D01*
X133309480Y-95074619D01*
X134325480Y-96090619D02*
X133986814Y-95606809D01*
X133744909Y-96090619D02*
X133744909Y-95074619D01*
X134131957Y-95074619D01*
X134228719Y-95123000D01*
X134277100Y-95171380D01*
X134325480Y-95268142D01*
X134325480Y-95413285D01*
X134277100Y-95510047D01*
X134228719Y-95558428D01*
X134131957Y-95606809D01*
X133744909Y-95606809D01*
X134760909Y-96090619D02*
X134760909Y-95074619D01*
X135244719Y-96090619D02*
X135244719Y-95074619D01*
X135631766Y-95074619D01*
X135728528Y-95123000D01*
X135776909Y-95171380D01*
X135825290Y-95268142D01*
X135825290Y-95413285D01*
X135776909Y-95510047D01*
X135728528Y-95558428D01*
X135631766Y-95606809D01*
X135244719Y-95606809D01*
X136260719Y-96090619D02*
X136260719Y-95074619D01*
X136260719Y-95558428D02*
X136841290Y-95558428D01*
X136841290Y-96090619D02*
X136841290Y-95074619D01*
X137325100Y-95558428D02*
X137663766Y-95558428D01*
X137808909Y-96090619D02*
X137325100Y-96090619D01*
X137325100Y-95074619D01*
X137808909Y-95074619D01*
X138824909Y-96090619D02*
X138486242Y-95606809D01*
X138244338Y-96090619D02*
X138244338Y-95074619D01*
X138631385Y-95074619D01*
X138728147Y-95123000D01*
X138776528Y-95171380D01*
X138824909Y-95268142D01*
X138824909Y-95413285D01*
X138776528Y-95510047D01*
X138728147Y-95558428D01*
X138631385Y-95606809D01*
X138244338Y-95606809D01*
X139211957Y-95800333D02*
X139695766Y-95800333D01*
X139115195Y-96090619D02*
X139453861Y-95074619D01*
X139792528Y-96090619D01*
X140615004Y-96090619D02*
X140131195Y-96090619D01*
X140131195Y-95074619D01*
X140856909Y-96477666D02*
X140905290Y-96429285D01*
X141002052Y-96284142D01*
X141050433Y-96187380D01*
X141098814Y-96042238D01*
X141147195Y-95800333D01*
X141147195Y-95606809D01*
X141098814Y-95364904D01*
X141050433Y-95219761D01*
X141002052Y-95123000D01*
X140905290Y-94977857D01*
X140856909Y-94929476D01*
X127358623Y-96949380D02*
X127407004Y-96901000D01*
X127503766Y-96852619D01*
X127745671Y-96852619D01*
X127842433Y-96901000D01*
X127890814Y-96949380D01*
X127939195Y-97046142D01*
X127939195Y-97142904D01*
X127890814Y-97288047D01*
X127310242Y-97868619D01*
X127939195Y-97868619D01*
X128374623Y-97771857D02*
X128423004Y-97820238D01*
X128374623Y-97868619D01*
X128326242Y-97820238D01*
X128374623Y-97771857D01*
X128374623Y-97868619D01*
X128374623Y-97239666D02*
X128423004Y-97288047D01*
X128374623Y-97336428D01*
X128326242Y-97288047D01*
X128374623Y-97239666D01*
X128374623Y-97336428D01*
X129487385Y-96852619D02*
X130067957Y-96852619D01*
X129777671Y-97868619D02*
X129777671Y-96852619D01*
X130309861Y-96852619D02*
X130987195Y-97868619D01*
X130987195Y-96852619D02*
X130309861Y-97868619D01*
X131374242Y-97868619D02*
X131374242Y-96852619D01*
X131616147Y-96852619D01*
X131761290Y-96901000D01*
X131858052Y-96997761D01*
X131906433Y-97094523D01*
X131954814Y-97288047D01*
X131954814Y-97433190D01*
X131906433Y-97626714D01*
X131858052Y-97723476D01*
X131761290Y-97820238D01*
X131616147Y-97868619D01*
X131374242Y-97868619D01*
X133454623Y-98255666D02*
X133406242Y-98207285D01*
X133309480Y-98062142D01*
X133261100Y-97965380D01*
X133212719Y-97820238D01*
X133164338Y-97578333D01*
X133164338Y-97384809D01*
X133212719Y-97142904D01*
X133261100Y-96997761D01*
X133309480Y-96901000D01*
X133406242Y-96755857D01*
X133454623Y-96707476D01*
X133841671Y-97868619D02*
X133841671Y-96852619D01*
X134083576Y-96852619D01*
X134228719Y-96901000D01*
X134325480Y-96997761D01*
X134373861Y-97094523D01*
X134422242Y-97288047D01*
X134422242Y-97433190D01*
X134373861Y-97626714D01*
X134325480Y-97723476D01*
X134228719Y-97820238D01*
X134083576Y-97868619D01*
X133841671Y-97868619D01*
X135438242Y-97771857D02*
X135389861Y-97820238D01*
X135244719Y-97868619D01*
X135147957Y-97868619D01*
X135002814Y-97820238D01*
X134906052Y-97723476D01*
X134857671Y-97626714D01*
X134809290Y-97433190D01*
X134809290Y-97288047D01*
X134857671Y-97094523D01*
X134906052Y-96997761D01*
X135002814Y-96901000D01*
X135147957Y-96852619D01*
X135244719Y-96852619D01*
X135389861Y-96901000D01*
X135438242Y-96949380D01*
X135873671Y-97336428D02*
X136212338Y-97336428D01*
X136357480Y-97868619D02*
X135873671Y-97868619D01*
X135873671Y-96852619D01*
X136357480Y-96852619D01*
X137760528Y-96852619D02*
X137954052Y-96852619D01*
X138050814Y-96901000D01*
X138147576Y-96997761D01*
X138195957Y-97191285D01*
X138195957Y-97529952D01*
X138147576Y-97723476D01*
X138050814Y-97820238D01*
X137954052Y-97868619D01*
X137760528Y-97868619D01*
X137663766Y-97820238D01*
X137567004Y-97723476D01*
X137518623Y-97529952D01*
X137518623Y-97191285D01*
X137567004Y-96997761D01*
X137663766Y-96901000D01*
X137760528Y-96852619D01*
X138631385Y-96852619D02*
X138631385Y-97675095D01*
X138679766Y-97771857D01*
X138728147Y-97820238D01*
X138824909Y-97868619D01*
X139018433Y-97868619D01*
X139115195Y-97820238D01*
X139163576Y-97771857D01*
X139211957Y-97675095D01*
X139211957Y-96852619D01*
X139550623Y-96852619D02*
X140131195Y-96852619D01*
X139840909Y-97868619D02*
X139840909Y-96852619D01*
X140373100Y-98255666D02*
X140421480Y-98207285D01*
X140518242Y-98062142D01*
X140566623Y-97965380D01*
X140615004Y-97820238D01*
X140663385Y-97578333D01*
X140663385Y-97384809D01*
X140615004Y-97142904D01*
X140566623Y-96997761D01*
X140518242Y-96901000D01*
X140421480Y-96755857D01*
X140373100Y-96707476D01*
X141921290Y-97481571D02*
X142695385Y-97481571D01*
X143179195Y-97191285D02*
X143953290Y-97481571D01*
X143179195Y-97771857D01*
X145791766Y-97868619D02*
X145453100Y-97384809D01*
X145211195Y-97868619D02*
X145211195Y-96852619D01*
X145598242Y-96852619D01*
X145695004Y-96901000D01*
X145743385Y-96949380D01*
X145791766Y-97046142D01*
X145791766Y-97191285D01*
X145743385Y-97288047D01*
X145695004Y-97336428D01*
X145598242Y-97384809D01*
X145211195Y-97384809D01*
X146130433Y-96852619D02*
X146807766Y-97868619D01*
X146807766Y-96852619D02*
X146130433Y-97868619D01*
X147194814Y-97868619D02*
X147194814Y-96852619D01*
X147436719Y-96852619D01*
X147581861Y-96901000D01*
X147678623Y-96997761D01*
X147727004Y-97094523D01*
X147775385Y-97288047D01*
X147775385Y-97433190D01*
X147727004Y-97626714D01*
X147678623Y-97723476D01*
X147581861Y-97820238D01*
X147436719Y-97868619D01*
X147194814Y-97868619D01*
X149275195Y-98255666D02*
X149226814Y-98207285D01*
X149130052Y-98062142D01*
X149081671Y-97965380D01*
X149033290Y-97820238D01*
X148984909Y-97578333D01*
X148984909Y-97384809D01*
X149033290Y-97142904D01*
X149081671Y-96997761D01*
X149130052Y-96901000D01*
X149226814Y-96755857D01*
X149275195Y-96707476D01*
X149662242Y-97868619D02*
X149662242Y-96852619D01*
X149904147Y-96852619D01*
X150049290Y-96901000D01*
X150146052Y-96997761D01*
X150194433Y-97094523D01*
X150242814Y-97288047D01*
X150242814Y-97433190D01*
X150194433Y-97626714D01*
X150146052Y-97723476D01*
X150049290Y-97820238D01*
X149904147Y-97868619D01*
X149662242Y-97868619D01*
X150533100Y-96852619D02*
X151113671Y-96852619D01*
X150823385Y-97868619D02*
X150823385Y-96852619D01*
X151452338Y-97336428D02*
X151791004Y-97336428D01*
X151936147Y-97868619D02*
X151452338Y-97868619D01*
X151452338Y-96852619D01*
X151936147Y-96852619D01*
X153145671Y-97868619D02*
X153145671Y-96852619D01*
X153629480Y-97868619D02*
X153629480Y-96852619D01*
X154210052Y-97868619D01*
X154210052Y-96852619D01*
X154597100Y-98255666D02*
X154645480Y-98207285D01*
X154742242Y-98062142D01*
X154790623Y-97965380D01*
X154839004Y-97820238D01*
X154887385Y-97578333D01*
X154887385Y-97384809D01*
X154839004Y-97142904D01*
X154790623Y-96997761D01*
X154742242Y-96901000D01*
X154645480Y-96755857D01*
X154597100Y-96707476D01*
X127310242Y-98630619D02*
X127939195Y-98630619D01*
X127600528Y-99017666D01*
X127745671Y-99017666D01*
X127842433Y-99066047D01*
X127890814Y-99114428D01*
X127939195Y-99211190D01*
X127939195Y-99453095D01*
X127890814Y-99549857D01*
X127842433Y-99598238D01*
X127745671Y-99646619D01*
X127455385Y-99646619D01*
X127358623Y-99598238D01*
X127310242Y-99549857D01*
X128374623Y-99549857D02*
X128423004Y-99598238D01*
X128374623Y-99646619D01*
X128326242Y-99598238D01*
X128374623Y-99549857D01*
X128374623Y-99646619D01*
X128374623Y-99017666D02*
X128423004Y-99066047D01*
X128374623Y-99114428D01*
X128326242Y-99066047D01*
X128374623Y-99017666D01*
X128374623Y-99114428D01*
X130213100Y-99646619D02*
X129874433Y-99162809D01*
X129632528Y-99646619D02*
X129632528Y-98630619D01*
X130019576Y-98630619D01*
X130116338Y-98679000D01*
X130164719Y-98727380D01*
X130213100Y-98824142D01*
X130213100Y-98969285D01*
X130164719Y-99066047D01*
X130116338Y-99114428D01*
X130019576Y-99162809D01*
X129632528Y-99162809D01*
X130551766Y-98630619D02*
X131229100Y-99646619D01*
X131229100Y-98630619D02*
X130551766Y-99646619D01*
X131616147Y-99646619D02*
X131616147Y-98630619D01*
X131858052Y-98630619D01*
X132003195Y-98679000D01*
X132099957Y-98775761D01*
X132148338Y-98872523D01*
X132196719Y-99066047D01*
X132196719Y-99211190D01*
X132148338Y-99404714D01*
X132099957Y-99501476D01*
X132003195Y-99598238D01*
X131858052Y-99646619D01*
X131616147Y-99646619D01*
X133696528Y-100033666D02*
X133648147Y-99985285D01*
X133551385Y-99840142D01*
X133503004Y-99743380D01*
X133454623Y-99598238D01*
X133406242Y-99356333D01*
X133406242Y-99162809D01*
X133454623Y-98920904D01*
X133503004Y-98775761D01*
X133551385Y-98679000D01*
X133648147Y-98533857D01*
X133696528Y-98485476D01*
X134083576Y-99646619D02*
X134083576Y-98630619D01*
X134325480Y-98630619D01*
X134470623Y-98679000D01*
X134567385Y-98775761D01*
X134615766Y-98872523D01*
X134664147Y-99066047D01*
X134664147Y-99211190D01*
X134615766Y-99404714D01*
X134567385Y-99501476D01*
X134470623Y-99598238D01*
X134325480Y-99646619D01*
X134083576Y-99646619D01*
X135680147Y-99549857D02*
X135631766Y-99598238D01*
X135486623Y-99646619D01*
X135389861Y-99646619D01*
X135244719Y-99598238D01*
X135147957Y-99501476D01*
X135099576Y-99404714D01*
X135051195Y-99211190D01*
X135051195Y-99066047D01*
X135099576Y-98872523D01*
X135147957Y-98775761D01*
X135244719Y-98679000D01*
X135389861Y-98630619D01*
X135486623Y-98630619D01*
X135631766Y-98679000D01*
X135680147Y-98727380D01*
X136115576Y-99114428D02*
X136454242Y-99114428D01*
X136599385Y-99646619D02*
X136115576Y-99646619D01*
X136115576Y-98630619D01*
X136599385Y-98630619D01*
X137808909Y-99646619D02*
X137808909Y-98630619D01*
X138292719Y-99646619D02*
X138292719Y-98630619D01*
X138873290Y-99646619D01*
X138873290Y-98630619D01*
X139260338Y-100033666D02*
X139308719Y-99985285D01*
X139405480Y-99840142D01*
X139453861Y-99743380D01*
X139502242Y-99598238D01*
X139550623Y-99356333D01*
X139550623Y-99162809D01*
X139502242Y-98920904D01*
X139453861Y-98775761D01*
X139405480Y-98679000D01*
X139308719Y-98533857D01*
X139260338Y-98485476D01*
X141582623Y-98969285D02*
X140808528Y-99259571D01*
X141582623Y-99549857D01*
X142066433Y-99259571D02*
X142840528Y-99259571D01*
X143953290Y-98630619D02*
X144533861Y-98630619D01*
X144243576Y-99646619D02*
X144243576Y-98630619D01*
X144775766Y-98630619D02*
X145453100Y-99646619D01*
X145453100Y-98630619D02*
X144775766Y-99646619D01*
X145840147Y-99646619D02*
X145840147Y-98630619D01*
X146082052Y-98630619D01*
X146227195Y-98679000D01*
X146323957Y-98775761D01*
X146372338Y-98872523D01*
X146420719Y-99066047D01*
X146420719Y-99211190D01*
X146372338Y-99404714D01*
X146323957Y-99501476D01*
X146227195Y-99598238D01*
X146082052Y-99646619D01*
X145840147Y-99646619D01*
X147920528Y-100033666D02*
X147872147Y-99985285D01*
X147775385Y-99840142D01*
X147727004Y-99743380D01*
X147678623Y-99598238D01*
X147630242Y-99356333D01*
X147630242Y-99162809D01*
X147678623Y-98920904D01*
X147727004Y-98775761D01*
X147775385Y-98679000D01*
X147872147Y-98533857D01*
X147920528Y-98485476D01*
X148307576Y-99646619D02*
X148307576Y-98630619D01*
X148549480Y-98630619D01*
X148694623Y-98679000D01*
X148791385Y-98775761D01*
X148839766Y-98872523D01*
X148888147Y-99066047D01*
X148888147Y-99211190D01*
X148839766Y-99404714D01*
X148791385Y-99501476D01*
X148694623Y-99598238D01*
X148549480Y-99646619D01*
X148307576Y-99646619D01*
X149178433Y-98630619D02*
X149759004Y-98630619D01*
X149468719Y-99646619D02*
X149468719Y-98630619D01*
X150097671Y-99114428D02*
X150436338Y-99114428D01*
X150581480Y-99646619D02*
X150097671Y-99646619D01*
X150097671Y-98630619D01*
X150581480Y-98630619D01*
X151984528Y-98630619D02*
X152178052Y-98630619D01*
X152274814Y-98679000D01*
X152371576Y-98775761D01*
X152419957Y-98969285D01*
X152419957Y-99307952D01*
X152371576Y-99501476D01*
X152274814Y-99598238D01*
X152178052Y-99646619D01*
X151984528Y-99646619D01*
X151887766Y-99598238D01*
X151791004Y-99501476D01*
X151742623Y-99307952D01*
X151742623Y-98969285D01*
X151791004Y-98775761D01*
X151887766Y-98679000D01*
X151984528Y-98630619D01*
X152855385Y-98630619D02*
X152855385Y-99453095D01*
X152903766Y-99549857D01*
X152952147Y-99598238D01*
X153048909Y-99646619D01*
X153242433Y-99646619D01*
X153339195Y-99598238D01*
X153387576Y-99549857D01*
X153435957Y-99453095D01*
X153435957Y-98630619D01*
X153774623Y-98630619D02*
X154355195Y-98630619D01*
X154064909Y-99646619D02*
X154064909Y-98630619D01*
X154597100Y-100033666D02*
X154645480Y-99985285D01*
X154742242Y-99840142D01*
X154790623Y-99743380D01*
X154839004Y-99598238D01*
X154887385Y-99356333D01*
X154887385Y-99162809D01*
X154839004Y-98920904D01*
X154790623Y-98775761D01*
X154742242Y-98679000D01*
X154645480Y-98533857D01*
X154597100Y-98485476D01*
X127890814Y-100408619D02*
X127407004Y-100408619D01*
X127358623Y-100892428D01*
X127407004Y-100844047D01*
X127503766Y-100795666D01*
X127745671Y-100795666D01*
X127842433Y-100844047D01*
X127890814Y-100892428D01*
X127939195Y-100989190D01*
X127939195Y-101231095D01*
X127890814Y-101327857D01*
X127842433Y-101376238D01*
X127745671Y-101424619D01*
X127503766Y-101424619D01*
X127407004Y-101376238D01*
X127358623Y-101327857D01*
X128374623Y-101327857D02*
X128423004Y-101376238D01*
X128374623Y-101424619D01*
X128326242Y-101376238D01*
X128374623Y-101327857D01*
X128374623Y-101424619D01*
X128374623Y-100795666D02*
X128423004Y-100844047D01*
X128374623Y-100892428D01*
X128326242Y-100844047D01*
X128374623Y-100795666D01*
X128374623Y-100892428D01*
X130164719Y-100457000D02*
X130067957Y-100408619D01*
X129922814Y-100408619D01*
X129777671Y-100457000D01*
X129680909Y-100553761D01*
X129632528Y-100650523D01*
X129584147Y-100844047D01*
X129584147Y-100989190D01*
X129632528Y-101182714D01*
X129680909Y-101279476D01*
X129777671Y-101376238D01*
X129922814Y-101424619D01*
X130019576Y-101424619D01*
X130164719Y-101376238D01*
X130213100Y-101327857D01*
X130213100Y-100989190D01*
X130019576Y-100989190D01*
X130648528Y-101424619D02*
X130648528Y-100408619D01*
X131229100Y-101424619D01*
X131229100Y-100408619D01*
X131712909Y-101424619D02*
X131712909Y-100408619D01*
X131954814Y-100408619D01*
X132099957Y-100457000D01*
X132196719Y-100553761D01*
X132245100Y-100650523D01*
X132293480Y-100844047D01*
X132293480Y-100989190D01*
X132245100Y-101182714D01*
X132196719Y-101279476D01*
X132099957Y-101376238D01*
X131954814Y-101424619D01*
X131712909Y-101424619D01*
X127697290Y-76278619D02*
X127697290Y-77004333D01*
X127648909Y-77149476D01*
X127552147Y-77246238D01*
X127407004Y-77294619D01*
X127310242Y-77294619D01*
X128713290Y-77294619D02*
X128132719Y-77294619D01*
X128423004Y-77294619D02*
X128423004Y-76278619D01*
X128326242Y-76423761D01*
X128229480Y-76520523D01*
X128132719Y-76568904D01*
X127407004Y-79072619D02*
X127407004Y-78056619D01*
X127745671Y-78782333D01*
X128084338Y-78056619D01*
X128084338Y-79072619D01*
X128519766Y-78782333D02*
X129003576Y-78782333D01*
X128423004Y-79072619D02*
X128761671Y-78056619D01*
X129100338Y-79072619D01*
X129922814Y-79072619D02*
X129439004Y-79072619D01*
X129439004Y-78056619D01*
X130261480Y-78540428D02*
X130600147Y-78540428D01*
X130745290Y-79072619D02*
X130261480Y-79072619D01*
X130261480Y-78056619D01*
X130745290Y-78056619D01*
X131954814Y-79072619D02*
X131954814Y-78056619D01*
X132341861Y-78056619D01*
X132438623Y-78105000D01*
X132487004Y-78153380D01*
X132535385Y-78250142D01*
X132535385Y-78395285D01*
X132487004Y-78492047D01*
X132438623Y-78540428D01*
X132341861Y-78588809D01*
X131954814Y-78588809D01*
X132970814Y-79072619D02*
X132970814Y-78056619D01*
X133454623Y-79072619D02*
X133454623Y-78056619D01*
X134035195Y-79072619D01*
X134035195Y-78056619D01*
X134470623Y-79024238D02*
X134615766Y-79072619D01*
X134857671Y-79072619D01*
X134954433Y-79024238D01*
X135002814Y-78975857D01*
X135051195Y-78879095D01*
X135051195Y-78782333D01*
X135002814Y-78685571D01*
X134954433Y-78637190D01*
X134857671Y-78588809D01*
X134664147Y-78540428D01*
X134567385Y-78492047D01*
X134519004Y-78443666D01*
X134470623Y-78346904D01*
X134470623Y-78250142D01*
X134519004Y-78153380D01*
X134567385Y-78105000D01*
X134664147Y-78056619D01*
X134906052Y-78056619D01*
X135051195Y-78105000D01*
X127407004Y-80850619D02*
X127407004Y-79834619D01*
X127648909Y-79834619D01*
X127794052Y-79883000D01*
X127890814Y-79979761D01*
X127939195Y-80076523D01*
X127987576Y-80270047D01*
X127987576Y-80415190D01*
X127939195Y-80608714D01*
X127890814Y-80705476D01*
X127794052Y-80802238D01*
X127648909Y-80850619D01*
X127407004Y-80850619D01*
X128277861Y-79834619D02*
X128858433Y-79834619D01*
X128568147Y-80850619D02*
X128568147Y-79834619D01*
X129197100Y-80318428D02*
X129535766Y-80318428D01*
X129680909Y-80850619D02*
X129197100Y-80850619D01*
X129197100Y-79834619D01*
X129680909Y-79834619D01*
X131180719Y-81237666D02*
X131132338Y-81189285D01*
X131035576Y-81044142D01*
X130987195Y-80947380D01*
X130938814Y-80802238D01*
X130890433Y-80560333D01*
X130890433Y-80366809D01*
X130938814Y-80124904D01*
X130987195Y-79979761D01*
X131035576Y-79883000D01*
X131132338Y-79737857D01*
X131180719Y-79689476D01*
X131567766Y-80850619D02*
X131567766Y-79834619D01*
X131954814Y-79834619D01*
X132051576Y-79883000D01*
X132099957Y-79931380D01*
X132148338Y-80028142D01*
X132148338Y-80173285D01*
X132099957Y-80270047D01*
X132051576Y-80318428D01*
X131954814Y-80366809D01*
X131567766Y-80366809D01*
X133164338Y-80753857D02*
X133115957Y-80802238D01*
X132970814Y-80850619D01*
X132874052Y-80850619D01*
X132728909Y-80802238D01*
X132632147Y-80705476D01*
X132583766Y-80608714D01*
X132535385Y-80415190D01*
X132535385Y-80270047D01*
X132583766Y-80076523D01*
X132632147Y-79979761D01*
X132728909Y-79883000D01*
X132874052Y-79834619D01*
X132970814Y-79834619D01*
X133115957Y-79883000D01*
X133164338Y-79931380D01*
X133503004Y-81237666D02*
X133551385Y-81189285D01*
X133648147Y-81044142D01*
X133696528Y-80947380D01*
X133744909Y-80802238D01*
X133793290Y-80560333D01*
X133793290Y-80366809D01*
X133744909Y-80124904D01*
X133696528Y-79979761D01*
X133648147Y-79883000D01*
X133551385Y-79737857D01*
X133503004Y-79689476D01*
X127358623Y-81709380D02*
X127407004Y-81661000D01*
X127503766Y-81612619D01*
X127745671Y-81612619D01*
X127842433Y-81661000D01*
X127890814Y-81709380D01*
X127939195Y-81806142D01*
X127939195Y-81902904D01*
X127890814Y-82048047D01*
X127310242Y-82628619D01*
X127939195Y-82628619D01*
X128374623Y-82531857D02*
X128423004Y-82580238D01*
X128374623Y-82628619D01*
X128326242Y-82580238D01*
X128374623Y-82531857D01*
X128374623Y-82628619D01*
X128374623Y-81999666D02*
X128423004Y-82048047D01*
X128374623Y-82096428D01*
X128326242Y-82048047D01*
X128374623Y-81999666D01*
X128374623Y-82096428D01*
X130213100Y-82628619D02*
X129874433Y-82144809D01*
X129632528Y-82628619D02*
X129632528Y-81612619D01*
X130019576Y-81612619D01*
X130116338Y-81661000D01*
X130164719Y-81709380D01*
X130213100Y-81806142D01*
X130213100Y-81951285D01*
X130164719Y-82048047D01*
X130116338Y-82096428D01*
X130019576Y-82144809D01*
X129632528Y-82144809D01*
X130551766Y-81612619D02*
X131229100Y-82628619D01*
X131229100Y-81612619D02*
X130551766Y-82628619D01*
X131616147Y-82628619D02*
X131616147Y-81612619D01*
X131858052Y-81612619D01*
X132003195Y-81661000D01*
X132099957Y-81757761D01*
X132148338Y-81854523D01*
X132196719Y-82048047D01*
X132196719Y-82193190D01*
X132148338Y-82386714D01*
X132099957Y-82483476D01*
X132003195Y-82580238D01*
X131858052Y-82628619D01*
X131616147Y-82628619D01*
X133696528Y-83015666D02*
X133648147Y-82967285D01*
X133551385Y-82822142D01*
X133503004Y-82725380D01*
X133454623Y-82580238D01*
X133406242Y-82338333D01*
X133406242Y-82144809D01*
X133454623Y-81902904D01*
X133503004Y-81757761D01*
X133551385Y-81661000D01*
X133648147Y-81515857D01*
X133696528Y-81467476D01*
X134083576Y-82628619D02*
X134083576Y-81612619D01*
X134325480Y-81612619D01*
X134470623Y-81661000D01*
X134567385Y-81757761D01*
X134615766Y-81854523D01*
X134664147Y-82048047D01*
X134664147Y-82193190D01*
X134615766Y-82386714D01*
X134567385Y-82483476D01*
X134470623Y-82580238D01*
X134325480Y-82628619D01*
X134083576Y-82628619D01*
X134954433Y-81612619D02*
X135535004Y-81612619D01*
X135244719Y-82628619D02*
X135244719Y-81612619D01*
X135873671Y-82096428D02*
X136212338Y-82096428D01*
X136357480Y-82628619D02*
X135873671Y-82628619D01*
X135873671Y-81612619D01*
X136357480Y-81612619D01*
X137567004Y-82628619D02*
X137567004Y-81612619D01*
X138050814Y-82628619D02*
X138050814Y-81612619D01*
X138631385Y-82628619D01*
X138631385Y-81612619D01*
X139018433Y-83015666D02*
X139066814Y-82967285D01*
X139163576Y-82822142D01*
X139211957Y-82725380D01*
X139260338Y-82580238D01*
X139308719Y-82338333D01*
X139308719Y-82144809D01*
X139260338Y-81902904D01*
X139211957Y-81757761D01*
X139163576Y-81661000D01*
X139066814Y-81515857D01*
X139018433Y-81467476D01*
X141340719Y-81951285D02*
X140566623Y-82241571D01*
X141340719Y-82531857D01*
X141824528Y-82241571D02*
X142598623Y-82241571D01*
X143711385Y-81612619D02*
X144291957Y-81612619D01*
X144001671Y-82628619D02*
X144001671Y-81612619D01*
X144533861Y-81612619D02*
X145211195Y-82628619D01*
X145211195Y-81612619D02*
X144533861Y-82628619D01*
X145598242Y-82628619D02*
X145598242Y-81612619D01*
X145840147Y-81612619D01*
X145985290Y-81661000D01*
X146082052Y-81757761D01*
X146130433Y-81854523D01*
X146178814Y-82048047D01*
X146178814Y-82193190D01*
X146130433Y-82386714D01*
X146082052Y-82483476D01*
X145985290Y-82580238D01*
X145840147Y-82628619D01*
X145598242Y-82628619D01*
X147678623Y-83015666D02*
X147630242Y-82967285D01*
X147533480Y-82822142D01*
X147485100Y-82725380D01*
X147436719Y-82580238D01*
X147388338Y-82338333D01*
X147388338Y-82144809D01*
X147436719Y-81902904D01*
X147485100Y-81757761D01*
X147533480Y-81661000D01*
X147630242Y-81515857D01*
X147678623Y-81467476D01*
X148065671Y-82628619D02*
X148065671Y-81612619D01*
X148307576Y-81612619D01*
X148452719Y-81661000D01*
X148549480Y-81757761D01*
X148597861Y-81854523D01*
X148646242Y-82048047D01*
X148646242Y-82193190D01*
X148597861Y-82386714D01*
X148549480Y-82483476D01*
X148452719Y-82580238D01*
X148307576Y-82628619D01*
X148065671Y-82628619D01*
X149662242Y-82531857D02*
X149613861Y-82580238D01*
X149468719Y-82628619D01*
X149371957Y-82628619D01*
X149226814Y-82580238D01*
X149130052Y-82483476D01*
X149081671Y-82386714D01*
X149033290Y-82193190D01*
X149033290Y-82048047D01*
X149081671Y-81854523D01*
X149130052Y-81757761D01*
X149226814Y-81661000D01*
X149371957Y-81612619D01*
X149468719Y-81612619D01*
X149613861Y-81661000D01*
X149662242Y-81709380D01*
X150097671Y-82096428D02*
X150436338Y-82096428D01*
X150581480Y-82628619D02*
X150097671Y-82628619D01*
X150097671Y-81612619D01*
X150581480Y-81612619D01*
X151984528Y-81612619D02*
X152178052Y-81612619D01*
X152274814Y-81661000D01*
X152371576Y-81757761D01*
X152419957Y-81951285D01*
X152419957Y-82289952D01*
X152371576Y-82483476D01*
X152274814Y-82580238D01*
X152178052Y-82628619D01*
X151984528Y-82628619D01*
X151887766Y-82580238D01*
X151791004Y-82483476D01*
X151742623Y-82289952D01*
X151742623Y-81951285D01*
X151791004Y-81757761D01*
X151887766Y-81661000D01*
X151984528Y-81612619D01*
X152855385Y-81612619D02*
X152855385Y-82435095D01*
X152903766Y-82531857D01*
X152952147Y-82580238D01*
X153048909Y-82628619D01*
X153242433Y-82628619D01*
X153339195Y-82580238D01*
X153387576Y-82531857D01*
X153435957Y-82435095D01*
X153435957Y-81612619D01*
X153774623Y-81612619D02*
X154355195Y-81612619D01*
X154064909Y-82628619D02*
X154064909Y-81612619D01*
X154597100Y-83015666D02*
X154645480Y-82967285D01*
X154742242Y-82822142D01*
X154790623Y-82725380D01*
X154839004Y-82580238D01*
X154887385Y-82338333D01*
X154887385Y-82144809D01*
X154839004Y-81902904D01*
X154790623Y-81757761D01*
X154742242Y-81661000D01*
X154645480Y-81515857D01*
X154597100Y-81467476D01*
X127310242Y-83390619D02*
X127939195Y-83390619D01*
X127600528Y-83777666D01*
X127745671Y-83777666D01*
X127842433Y-83826047D01*
X127890814Y-83874428D01*
X127939195Y-83971190D01*
X127939195Y-84213095D01*
X127890814Y-84309857D01*
X127842433Y-84358238D01*
X127745671Y-84406619D01*
X127455385Y-84406619D01*
X127358623Y-84358238D01*
X127310242Y-84309857D01*
X128374623Y-84309857D02*
X128423004Y-84358238D01*
X128374623Y-84406619D01*
X128326242Y-84358238D01*
X128374623Y-84309857D01*
X128374623Y-84406619D01*
X128374623Y-83777666D02*
X128423004Y-83826047D01*
X128374623Y-83874428D01*
X128326242Y-83826047D01*
X128374623Y-83777666D01*
X128374623Y-83874428D01*
X129487385Y-83390619D02*
X130067957Y-83390619D01*
X129777671Y-84406619D02*
X129777671Y-83390619D01*
X130309861Y-83390619D02*
X130987195Y-84406619D01*
X130987195Y-83390619D02*
X130309861Y-84406619D01*
X131374242Y-84406619D02*
X131374242Y-83390619D01*
X131616147Y-83390619D01*
X131761290Y-83439000D01*
X131858052Y-83535761D01*
X131906433Y-83632523D01*
X131954814Y-83826047D01*
X131954814Y-83971190D01*
X131906433Y-84164714D01*
X131858052Y-84261476D01*
X131761290Y-84358238D01*
X131616147Y-84406619D01*
X131374242Y-84406619D01*
X133454623Y-84793666D02*
X133406242Y-84745285D01*
X133309480Y-84600142D01*
X133261100Y-84503380D01*
X133212719Y-84358238D01*
X133164338Y-84116333D01*
X133164338Y-83922809D01*
X133212719Y-83680904D01*
X133261100Y-83535761D01*
X133309480Y-83439000D01*
X133406242Y-83293857D01*
X133454623Y-83245476D01*
X133841671Y-84406619D02*
X133841671Y-83390619D01*
X134083576Y-83390619D01*
X134228719Y-83439000D01*
X134325480Y-83535761D01*
X134373861Y-83632523D01*
X134422242Y-83826047D01*
X134422242Y-83971190D01*
X134373861Y-84164714D01*
X134325480Y-84261476D01*
X134228719Y-84358238D01*
X134083576Y-84406619D01*
X133841671Y-84406619D01*
X134712528Y-83390619D02*
X135293100Y-83390619D01*
X135002814Y-84406619D02*
X135002814Y-83390619D01*
X135631766Y-83874428D02*
X135970433Y-83874428D01*
X136115576Y-84406619D02*
X135631766Y-84406619D01*
X135631766Y-83390619D01*
X136115576Y-83390619D01*
X137518623Y-83390619D02*
X137712147Y-83390619D01*
X137808909Y-83439000D01*
X137905671Y-83535761D01*
X137954052Y-83729285D01*
X137954052Y-84067952D01*
X137905671Y-84261476D01*
X137808909Y-84358238D01*
X137712147Y-84406619D01*
X137518623Y-84406619D01*
X137421861Y-84358238D01*
X137325100Y-84261476D01*
X137276719Y-84067952D01*
X137276719Y-83729285D01*
X137325100Y-83535761D01*
X137421861Y-83439000D01*
X137518623Y-83390619D01*
X138389480Y-83390619D02*
X138389480Y-84213095D01*
X138437861Y-84309857D01*
X138486242Y-84358238D01*
X138583004Y-84406619D01*
X138776528Y-84406619D01*
X138873290Y-84358238D01*
X138921671Y-84309857D01*
X138970052Y-84213095D01*
X138970052Y-83390619D01*
X139308719Y-83390619D02*
X139889290Y-83390619D01*
X139599004Y-84406619D02*
X139599004Y-83390619D01*
X140131195Y-84793666D02*
X140179576Y-84745285D01*
X140276338Y-84600142D01*
X140324719Y-84503380D01*
X140373100Y-84358238D01*
X140421480Y-84116333D01*
X140421480Y-83922809D01*
X140373100Y-83680904D01*
X140324719Y-83535761D01*
X140276338Y-83439000D01*
X140179576Y-83293857D01*
X140131195Y-83245476D01*
X141679385Y-84019571D02*
X142453480Y-84019571D01*
X142937290Y-83729285D02*
X143711385Y-84019571D01*
X142937290Y-84309857D01*
X145549861Y-84406619D02*
X145211195Y-83922809D01*
X144969290Y-84406619D02*
X144969290Y-83390619D01*
X145356338Y-83390619D01*
X145453100Y-83439000D01*
X145501480Y-83487380D01*
X145549861Y-83584142D01*
X145549861Y-83729285D01*
X145501480Y-83826047D01*
X145453100Y-83874428D01*
X145356338Y-83922809D01*
X144969290Y-83922809D01*
X145888528Y-83390619D02*
X146565861Y-84406619D01*
X146565861Y-83390619D02*
X145888528Y-84406619D01*
X146952909Y-84406619D02*
X146952909Y-83390619D01*
X147194814Y-83390619D01*
X147339957Y-83439000D01*
X147436719Y-83535761D01*
X147485100Y-83632523D01*
X147533480Y-83826047D01*
X147533480Y-83971190D01*
X147485100Y-84164714D01*
X147436719Y-84261476D01*
X147339957Y-84358238D01*
X147194814Y-84406619D01*
X146952909Y-84406619D01*
X149033290Y-84793666D02*
X148984909Y-84745285D01*
X148888147Y-84600142D01*
X148839766Y-84503380D01*
X148791385Y-84358238D01*
X148743004Y-84116333D01*
X148743004Y-83922809D01*
X148791385Y-83680904D01*
X148839766Y-83535761D01*
X148888147Y-83439000D01*
X148984909Y-83293857D01*
X149033290Y-83245476D01*
X149420338Y-84406619D02*
X149420338Y-83390619D01*
X149662242Y-83390619D01*
X149807385Y-83439000D01*
X149904147Y-83535761D01*
X149952528Y-83632523D01*
X150000909Y-83826047D01*
X150000909Y-83971190D01*
X149952528Y-84164714D01*
X149904147Y-84261476D01*
X149807385Y-84358238D01*
X149662242Y-84406619D01*
X149420338Y-84406619D01*
X151016909Y-84309857D02*
X150968528Y-84358238D01*
X150823385Y-84406619D01*
X150726623Y-84406619D01*
X150581480Y-84358238D01*
X150484719Y-84261476D01*
X150436338Y-84164714D01*
X150387957Y-83971190D01*
X150387957Y-83826047D01*
X150436338Y-83632523D01*
X150484719Y-83535761D01*
X150581480Y-83439000D01*
X150726623Y-83390619D01*
X150823385Y-83390619D01*
X150968528Y-83439000D01*
X151016909Y-83487380D01*
X151452338Y-83874428D02*
X151791004Y-83874428D01*
X151936147Y-84406619D02*
X151452338Y-84406619D01*
X151452338Y-83390619D01*
X151936147Y-83390619D01*
X153145671Y-84406619D02*
X153145671Y-83390619D01*
X153629480Y-84406619D02*
X153629480Y-83390619D01*
X154210052Y-84406619D01*
X154210052Y-83390619D01*
X154597100Y-84793666D02*
X154645480Y-84745285D01*
X154742242Y-84600142D01*
X154790623Y-84503380D01*
X154839004Y-84358238D01*
X154887385Y-84116333D01*
X154887385Y-83922809D01*
X154839004Y-83680904D01*
X154790623Y-83535761D01*
X154742242Y-83439000D01*
X154645480Y-83293857D01*
X154597100Y-83245476D01*
X127890814Y-85168619D02*
X127407004Y-85168619D01*
X127358623Y-85652428D01*
X127407004Y-85604047D01*
X127503766Y-85555666D01*
X127745671Y-85555666D01*
X127842433Y-85604047D01*
X127890814Y-85652428D01*
X127939195Y-85749190D01*
X127939195Y-85991095D01*
X127890814Y-86087857D01*
X127842433Y-86136238D01*
X127745671Y-86184619D01*
X127503766Y-86184619D01*
X127407004Y-86136238D01*
X127358623Y-86087857D01*
X128374623Y-86087857D02*
X128423004Y-86136238D01*
X128374623Y-86184619D01*
X128326242Y-86136238D01*
X128374623Y-86087857D01*
X128374623Y-86184619D01*
X128374623Y-85555666D02*
X128423004Y-85604047D01*
X128374623Y-85652428D01*
X128326242Y-85604047D01*
X128374623Y-85555666D01*
X128374623Y-85652428D01*
X130164719Y-85217000D02*
X130067957Y-85168619D01*
X129922814Y-85168619D01*
X129777671Y-85217000D01*
X129680909Y-85313761D01*
X129632528Y-85410523D01*
X129584147Y-85604047D01*
X129584147Y-85749190D01*
X129632528Y-85942714D01*
X129680909Y-86039476D01*
X129777671Y-86136238D01*
X129922814Y-86184619D01*
X130019576Y-86184619D01*
X130164719Y-86136238D01*
X130213100Y-86087857D01*
X130213100Y-85749190D01*
X130019576Y-85749190D01*
X130648528Y-86184619D02*
X130648528Y-85168619D01*
X131229100Y-86184619D01*
X131229100Y-85168619D01*
X131712909Y-86184619D02*
X131712909Y-85168619D01*
X131954814Y-85168619D01*
X132099957Y-85217000D01*
X132196719Y-85313761D01*
X132245100Y-85410523D01*
X132293480Y-85604047D01*
X132293480Y-85749190D01*
X132245100Y-85942714D01*
X132196719Y-86039476D01*
X132099957Y-86136238D01*
X131954814Y-86184619D01*
X131712909Y-86184619D01*
D12*
X156210000Y-67945000D02*
X85725000Y-67945000D01*
X156210000Y-109855000D02*
X156210000Y-67945000D01*
X85725000Y-109855000D02*
X156210000Y-109855000D01*
X85725000Y-67945000D02*
X85725000Y-109855000D01*
D13*
X92437857Y-104599619D02*
X92437857Y-103583619D01*
X92873285Y-104599619D02*
X92873285Y-104067428D01*
X92824904Y-103970666D01*
X92728142Y-103922285D01*
X92583000Y-103922285D01*
X92486238Y-103970666D01*
X92437857Y-104019047D01*
X93211952Y-103922285D02*
X93599000Y-103922285D01*
X93357095Y-103583619D02*
X93357095Y-104454476D01*
X93405476Y-104551238D01*
X93502238Y-104599619D01*
X93599000Y-104599619D01*
X93792523Y-103922285D02*
X94179571Y-103922285D01*
X93937666Y-103583619D02*
X93937666Y-104454476D01*
X93986047Y-104551238D01*
X94082809Y-104599619D01*
X94179571Y-104599619D01*
X94518238Y-103922285D02*
X94518238Y-104938285D01*
X94518238Y-103970666D02*
X94615000Y-103922285D01*
X94808523Y-103922285D01*
X94905285Y-103970666D01*
X94953666Y-104019047D01*
X95002047Y-104115809D01*
X95002047Y-104406095D01*
X94953666Y-104502857D01*
X94905285Y-104551238D01*
X94808523Y-104599619D01*
X94615000Y-104599619D01*
X94518238Y-104551238D01*
X95389095Y-104551238D02*
X95485857Y-104599619D01*
X95679380Y-104599619D01*
X95776142Y-104551238D01*
X95824523Y-104454476D01*
X95824523Y-104406095D01*
X95776142Y-104309333D01*
X95679380Y-104260952D01*
X95534238Y-104260952D01*
X95437476Y-104212571D01*
X95389095Y-104115809D01*
X95389095Y-104067428D01*
X95437476Y-103970666D01*
X95534238Y-103922285D01*
X95679380Y-103922285D01*
X95776142Y-103970666D01*
X96259952Y-104502857D02*
X96308333Y-104551238D01*
X96259952Y-104599619D01*
X96211571Y-104551238D01*
X96259952Y-104502857D01*
X96259952Y-104599619D01*
X96259952Y-103970666D02*
X96308333Y-104019047D01*
X96259952Y-104067428D01*
X96211571Y-104019047D01*
X96259952Y-103970666D01*
X96259952Y-104067428D01*
X97469476Y-103535238D02*
X96598619Y-104841523D01*
X98533857Y-103535238D02*
X97663000Y-104841523D01*
X99307952Y-103922285D02*
X99307952Y-104744761D01*
X99259571Y-104841523D01*
X99211190Y-104889904D01*
X99114428Y-104938285D01*
X98969285Y-104938285D01*
X98872523Y-104889904D01*
X99307952Y-104551238D02*
X99211190Y-104599619D01*
X99017666Y-104599619D01*
X98920904Y-104551238D01*
X98872523Y-104502857D01*
X98824142Y-104406095D01*
X98824142Y-104115809D01*
X98872523Y-104019047D01*
X98920904Y-103970666D01*
X99017666Y-103922285D01*
X99211190Y-103922285D01*
X99307952Y-103970666D01*
X99791761Y-104599619D02*
X99791761Y-103922285D01*
X99791761Y-103583619D02*
X99743380Y-103632000D01*
X99791761Y-103680380D01*
X99840142Y-103632000D01*
X99791761Y-103583619D01*
X99791761Y-103680380D01*
X100130428Y-103922285D02*
X100517476Y-103922285D01*
X100275571Y-103583619D02*
X100275571Y-104454476D01*
X100323952Y-104551238D01*
X100420714Y-104599619D01*
X100517476Y-104599619D01*
X100856142Y-104599619D02*
X100856142Y-103583619D01*
X101291571Y-104599619D02*
X101291571Y-104067428D01*
X101243190Y-103970666D01*
X101146428Y-103922285D01*
X101001285Y-103922285D01*
X100904523Y-103970666D01*
X100856142Y-104019047D01*
X102210809Y-103922285D02*
X102210809Y-104599619D01*
X101775380Y-103922285D02*
X101775380Y-104454476D01*
X101823761Y-104551238D01*
X101920523Y-104599619D01*
X102065666Y-104599619D01*
X102162428Y-104551238D01*
X102210809Y-104502857D01*
X102694619Y-104599619D02*
X102694619Y-103583619D01*
X102694619Y-103970666D02*
X102791380Y-103922285D01*
X102984904Y-103922285D01*
X103081666Y-103970666D01*
X103130047Y-104019047D01*
X103178428Y-104115809D01*
X103178428Y-104406095D01*
X103130047Y-104502857D01*
X103081666Y-104551238D01*
X102984904Y-104599619D01*
X102791380Y-104599619D01*
X102694619Y-104551238D01*
X103613857Y-104502857D02*
X103662238Y-104551238D01*
X103613857Y-104599619D01*
X103565476Y-104551238D01*
X103613857Y-104502857D01*
X103613857Y-104599619D01*
X104533095Y-104551238D02*
X104436333Y-104599619D01*
X104242809Y-104599619D01*
X104146047Y-104551238D01*
X104097666Y-104502857D01*
X104049285Y-104406095D01*
X104049285Y-104115809D01*
X104097666Y-104019047D01*
X104146047Y-103970666D01*
X104242809Y-103922285D01*
X104436333Y-103922285D01*
X104533095Y-103970666D01*
X105113666Y-104599619D02*
X105016904Y-104551238D01*
X104968523Y-104502857D01*
X104920142Y-104406095D01*
X104920142Y-104115809D01*
X104968523Y-104019047D01*
X105016904Y-103970666D01*
X105113666Y-103922285D01*
X105258809Y-103922285D01*
X105355571Y-103970666D01*
X105403952Y-104019047D01*
X105452333Y-104115809D01*
X105452333Y-104406095D01*
X105403952Y-104502857D01*
X105355571Y-104551238D01*
X105258809Y-104599619D01*
X105113666Y-104599619D01*
X105887761Y-104599619D02*
X105887761Y-103922285D01*
X105887761Y-104019047D02*
X105936142Y-103970666D01*
X106032904Y-103922285D01*
X106178047Y-103922285D01*
X106274809Y-103970666D01*
X106323190Y-104067428D01*
X106323190Y-104599619D01*
X106323190Y-104067428D02*
X106371571Y-103970666D01*
X106468333Y-103922285D01*
X106613476Y-103922285D01*
X106710238Y-103970666D01*
X106758619Y-104067428D01*
X106758619Y-104599619D01*
X107968142Y-103535238D02*
X107097285Y-104841523D01*
X108306809Y-103922285D02*
X108306809Y-104793142D01*
X108258428Y-104889904D01*
X108161666Y-104938285D01*
X108113285Y-104938285D01*
X108306809Y-103583619D02*
X108258428Y-103632000D01*
X108306809Y-103680380D01*
X108355190Y-103632000D01*
X108306809Y-103583619D01*
X108306809Y-103680380D01*
X109226047Y-104599619D02*
X109226047Y-104067428D01*
X109177666Y-103970666D01*
X109080904Y-103922285D01*
X108887380Y-103922285D01*
X108790619Y-103970666D01*
X109226047Y-104551238D02*
X109129285Y-104599619D01*
X108887380Y-104599619D01*
X108790619Y-104551238D01*
X108742238Y-104454476D01*
X108742238Y-104357714D01*
X108790619Y-104260952D01*
X108887380Y-104212571D01*
X109129285Y-104212571D01*
X109226047Y-104164190D01*
X109709857Y-103922285D02*
X109709857Y-104599619D01*
X109709857Y-104019047D02*
X109758238Y-103970666D01*
X109855000Y-103922285D01*
X110000142Y-103922285D01*
X110096904Y-103970666D01*
X110145285Y-104067428D01*
X110145285Y-104599619D01*
X111016142Y-104551238D02*
X110919380Y-104599619D01*
X110725857Y-104599619D01*
X110629095Y-104551238D01*
X110580714Y-104454476D01*
X110580714Y-104067428D01*
X110629095Y-103970666D01*
X110725857Y-103922285D01*
X110919380Y-103922285D01*
X111016142Y-103970666D01*
X111064523Y-104067428D01*
X111064523Y-104164190D01*
X110580714Y-104260952D01*
X111645095Y-104599619D02*
X111548333Y-104551238D01*
X111499952Y-104454476D01*
X111499952Y-103583619D01*
X112032142Y-104599619D02*
X112032142Y-103922285D01*
X112032142Y-103583619D02*
X111983761Y-103632000D01*
X112032142Y-103680380D01*
X112080523Y-103632000D01*
X112032142Y-103583619D01*
X112032142Y-103680380D01*
X112951380Y-104599619D02*
X112951380Y-104067428D01*
X112903000Y-103970666D01*
X112806238Y-103922285D01*
X112612714Y-103922285D01*
X112515952Y-103970666D01*
X112951380Y-104551238D02*
X112854619Y-104599619D01*
X112612714Y-104599619D01*
X112515952Y-104551238D01*
X112467571Y-104454476D01*
X112467571Y-104357714D01*
X112515952Y-104260952D01*
X112612714Y-104212571D01*
X112854619Y-104212571D01*
X112951380Y-104164190D01*
X113435190Y-104212571D02*
X114209285Y-104212571D01*
X114693095Y-104599619D02*
X114693095Y-103922285D01*
X114693095Y-104019047D02*
X114741476Y-103970666D01*
X114838238Y-103922285D01*
X114983380Y-103922285D01*
X115080142Y-103970666D01*
X115128523Y-104067428D01*
X115128523Y-104599619D01*
X115128523Y-104067428D02*
X115176904Y-103970666D01*
X115273666Y-103922285D01*
X115418809Y-103922285D01*
X115515571Y-103970666D01*
X115563952Y-104067428D01*
X115563952Y-104599619D01*
X116192904Y-104599619D02*
X116096142Y-104551238D01*
X116047761Y-104502857D01*
X115999380Y-104406095D01*
X115999380Y-104115809D01*
X116047761Y-104019047D01*
X116096142Y-103970666D01*
X116192904Y-103922285D01*
X116338047Y-103922285D01*
X116434809Y-103970666D01*
X116483190Y-104019047D01*
X116531571Y-104115809D01*
X116531571Y-104406095D01*
X116483190Y-104502857D01*
X116434809Y-104551238D01*
X116338047Y-104599619D01*
X116192904Y-104599619D01*
X117402428Y-104599619D02*
X117402428Y-103583619D01*
X117402428Y-104551238D02*
X117305666Y-104599619D01*
X117112142Y-104599619D01*
X117015380Y-104551238D01*
X116967000Y-104502857D01*
X116918619Y-104406095D01*
X116918619Y-104115809D01*
X116967000Y-104019047D01*
X117015380Y-103970666D01*
X117112142Y-103922285D01*
X117305666Y-103922285D01*
X117402428Y-103970666D01*
X118321666Y-103922285D02*
X118321666Y-104599619D01*
X117886238Y-103922285D02*
X117886238Y-104454476D01*
X117934619Y-104551238D01*
X118031380Y-104599619D01*
X118176523Y-104599619D01*
X118273285Y-104551238D01*
X118321666Y-104502857D01*
X118950619Y-104599619D02*
X118853857Y-104551238D01*
X118805476Y-104454476D01*
X118805476Y-103583619D01*
X119773095Y-104599619D02*
X119773095Y-104067428D01*
X119724714Y-103970666D01*
X119627952Y-103922285D01*
X119434428Y-103922285D01*
X119337666Y-103970666D01*
X119773095Y-104551238D02*
X119676333Y-104599619D01*
X119434428Y-104599619D01*
X119337666Y-104551238D01*
X119289285Y-104454476D01*
X119289285Y-104357714D01*
X119337666Y-104260952D01*
X119434428Y-104212571D01*
X119676333Y-104212571D01*
X119773095Y-104164190D01*
X120256904Y-104599619D02*
X120256904Y-103922285D01*
X120256904Y-104115809D02*
X120305285Y-104019047D01*
X120353666Y-103970666D01*
X120450428Y-103922285D01*
X120547190Y-103922285D01*
X120885857Y-104212571D02*
X121659952Y-104212571D01*
X122579190Y-104599619D02*
X122579190Y-103583619D01*
X122579190Y-104551238D02*
X122482428Y-104599619D01*
X122288904Y-104599619D01*
X122192142Y-104551238D01*
X122143761Y-104502857D01*
X122095380Y-104406095D01*
X122095380Y-104115809D01*
X122143761Y-104019047D01*
X122192142Y-103970666D01*
X122288904Y-103922285D01*
X122482428Y-103922285D01*
X122579190Y-103970666D01*
X123450047Y-104551238D02*
X123353285Y-104599619D01*
X123159761Y-104599619D01*
X123063000Y-104551238D01*
X123014619Y-104454476D01*
X123014619Y-104067428D01*
X123063000Y-103970666D01*
X123159761Y-103922285D01*
X123353285Y-103922285D01*
X123450047Y-103970666D01*
X123498428Y-104067428D01*
X123498428Y-104164190D01*
X123014619Y-104260952D01*
X123837095Y-103922285D02*
X124079000Y-104599619D01*
X124320904Y-103922285D01*
X124707952Y-104599619D02*
X124707952Y-103922285D01*
X124707952Y-103583619D02*
X124659571Y-103632000D01*
X124707952Y-103680380D01*
X124756333Y-103632000D01*
X124707952Y-103583619D01*
X124707952Y-103680380D01*
X125627190Y-104551238D02*
X125530428Y-104599619D01*
X125336904Y-104599619D01*
X125240142Y-104551238D01*
X125191761Y-104502857D01*
X125143380Y-104406095D01*
X125143380Y-104115809D01*
X125191761Y-104019047D01*
X125240142Y-103970666D01*
X125336904Y-103922285D01*
X125530428Y-103922285D01*
X125627190Y-103970666D01*
X126449666Y-104551238D02*
X126352904Y-104599619D01*
X126159380Y-104599619D01*
X126062619Y-104551238D01*
X126014238Y-104454476D01*
X126014238Y-104067428D01*
X126062619Y-103970666D01*
X126159380Y-103922285D01*
X126352904Y-103922285D01*
X126449666Y-103970666D01*
X126498047Y-104067428D01*
X126498047Y-104164190D01*
X126014238Y-104260952D01*
X126885095Y-104551238D02*
X126981857Y-104599619D01*
X127175380Y-104599619D01*
X127272142Y-104551238D01*
X127320523Y-104454476D01*
X127320523Y-104406095D01*
X127272142Y-104309333D01*
X127175380Y-104260952D01*
X127030238Y-104260952D01*
X126933476Y-104212571D01*
X126885095Y-104115809D01*
X126885095Y-104067428D01*
X126933476Y-103970666D01*
X127030238Y-103922285D01*
X127175380Y-103922285D01*
X127272142Y-103970666D01*
D11*
X86311619Y-97294095D02*
X87037333Y-97294095D01*
X87182476Y-97342476D01*
X87279238Y-97439238D01*
X87327619Y-97584380D01*
X87327619Y-97681142D01*
X87327619Y-96374857D02*
X86795428Y-96374857D01*
X86698666Y-96423238D01*
X86650285Y-96520000D01*
X86650285Y-96713523D01*
X86698666Y-96810285D01*
X87279238Y-96374857D02*
X87327619Y-96471619D01*
X87327619Y-96713523D01*
X87279238Y-96810285D01*
X87182476Y-96858666D01*
X87085714Y-96858666D01*
X86988952Y-96810285D01*
X86940571Y-96713523D01*
X86940571Y-96471619D01*
X86892190Y-96374857D01*
X86650285Y-95891047D02*
X87327619Y-95891047D01*
X86747047Y-95891047D02*
X86698666Y-95842666D01*
X86650285Y-95745904D01*
X86650285Y-95600761D01*
X86698666Y-95504000D01*
X86795428Y-95455619D01*
X87327619Y-95455619D01*
X87279238Y-94584761D02*
X87327619Y-94681523D01*
X87327619Y-94875047D01*
X87279238Y-94971809D01*
X87182476Y-95020190D01*
X86795428Y-95020190D01*
X86698666Y-94971809D01*
X86650285Y-94875047D01*
X86650285Y-94681523D01*
X86698666Y-94584761D01*
X86795428Y-94536380D01*
X86892190Y-94536380D01*
X86988952Y-95020190D01*
X87327619Y-93955809D02*
X87279238Y-94052571D01*
X87182476Y-94100952D01*
X86311619Y-94100952D01*
X87327619Y-93568761D02*
X86650285Y-93568761D01*
X86311619Y-93568761D02*
X86360000Y-93617142D01*
X86408380Y-93568761D01*
X86360000Y-93520380D01*
X86311619Y-93568761D01*
X86408380Y-93568761D01*
X87327619Y-92649523D02*
X86795428Y-92649523D01*
X86698666Y-92697904D01*
X86650285Y-92794666D01*
X86650285Y-92988190D01*
X86698666Y-93084952D01*
X87279238Y-92649523D02*
X87327619Y-92746285D01*
X87327619Y-92988190D01*
X87279238Y-93084952D01*
X87182476Y-93133333D01*
X87085714Y-93133333D01*
X86988952Y-93084952D01*
X86940571Y-92988190D01*
X86940571Y-92746285D01*
X86892190Y-92649523D01*
X87327619Y-91391619D02*
X86311619Y-91391619D01*
X87037333Y-91052952D01*
X86311619Y-90714285D01*
X87327619Y-90714285D01*
X87327619Y-90085333D02*
X87279238Y-90182095D01*
X87230857Y-90230476D01*
X87134095Y-90278857D01*
X86843809Y-90278857D01*
X86747047Y-90230476D01*
X86698666Y-90182095D01*
X86650285Y-90085333D01*
X86650285Y-89940190D01*
X86698666Y-89843428D01*
X86747047Y-89795047D01*
X86843809Y-89746666D01*
X87134095Y-89746666D01*
X87230857Y-89795047D01*
X87279238Y-89843428D01*
X87327619Y-89940190D01*
X87327619Y-90085333D01*
X87327619Y-88875809D02*
X86311619Y-88875809D01*
X87279238Y-88875809D02*
X87327619Y-88972571D01*
X87327619Y-89166095D01*
X87279238Y-89262857D01*
X87230857Y-89311238D01*
X87134095Y-89359619D01*
X86843809Y-89359619D01*
X86747047Y-89311238D01*
X86698666Y-89262857D01*
X86650285Y-89166095D01*
X86650285Y-88972571D01*
X86698666Y-88875809D01*
X86650285Y-87956571D02*
X87327619Y-87956571D01*
X86650285Y-88392000D02*
X87182476Y-88392000D01*
X87279238Y-88343619D01*
X87327619Y-88246857D01*
X87327619Y-88101714D01*
X87279238Y-88004952D01*
X87230857Y-87956571D01*
X87327619Y-87327619D02*
X87279238Y-87424380D01*
X87182476Y-87472761D01*
X86311619Y-87472761D01*
X87327619Y-86505142D02*
X86795428Y-86505142D01*
X86698666Y-86553523D01*
X86650285Y-86650285D01*
X86650285Y-86843809D01*
X86698666Y-86940571D01*
X87279238Y-86505142D02*
X87327619Y-86601904D01*
X87327619Y-86843809D01*
X87279238Y-86940571D01*
X87182476Y-86988952D01*
X87085714Y-86988952D01*
X86988952Y-86940571D01*
X86940571Y-86843809D01*
X86940571Y-86601904D01*
X86892190Y-86505142D01*
X87327619Y-86021333D02*
X86650285Y-86021333D01*
X86843809Y-86021333D02*
X86747047Y-85972952D01*
X86698666Y-85924571D01*
X86650285Y-85827809D01*
X86650285Y-85731047D01*
X87327619Y-84618285D02*
X86311619Y-84618285D01*
X86311619Y-84376380D01*
X86360000Y-84231238D01*
X86456761Y-84134476D01*
X86553523Y-84086095D01*
X86747047Y-84037714D01*
X86892190Y-84037714D01*
X87085714Y-84086095D01*
X87182476Y-84134476D01*
X87279238Y-84231238D01*
X87327619Y-84376380D01*
X87327619Y-84618285D01*
X87279238Y-83215238D02*
X87327619Y-83312000D01*
X87327619Y-83505523D01*
X87279238Y-83602285D01*
X87182476Y-83650666D01*
X86795428Y-83650666D01*
X86698666Y-83602285D01*
X86650285Y-83505523D01*
X86650285Y-83312000D01*
X86698666Y-83215238D01*
X86795428Y-83166857D01*
X86892190Y-83166857D01*
X86988952Y-83650666D01*
X86650285Y-82828190D02*
X87327619Y-82586285D01*
X86650285Y-82344380D01*
X87327619Y-81957333D02*
X86650285Y-81957333D01*
X86311619Y-81957333D02*
X86360000Y-82005714D01*
X86408380Y-81957333D01*
X86360000Y-81908952D01*
X86311619Y-81957333D01*
X86408380Y-81957333D01*
X87279238Y-81038095D02*
X87327619Y-81134857D01*
X87327619Y-81328380D01*
X87279238Y-81425142D01*
X87230857Y-81473523D01*
X87134095Y-81521904D01*
X86843809Y-81521904D01*
X86747047Y-81473523D01*
X86698666Y-81425142D01*
X86650285Y-81328380D01*
X86650285Y-81134857D01*
X86698666Y-81038095D01*
X87279238Y-80215619D02*
X87327619Y-80312380D01*
X87327619Y-80505904D01*
X87279238Y-80602666D01*
X87182476Y-80651047D01*
X86795428Y-80651047D01*
X86698666Y-80602666D01*
X86650285Y-80505904D01*
X86650285Y-80312380D01*
X86698666Y-80215619D01*
X86795428Y-80167238D01*
X86892190Y-80167238D01*
X86988952Y-80651047D01*
X89105619Y-94584761D02*
X88428285Y-94584761D01*
X88621809Y-94584761D02*
X88525047Y-94536380D01*
X88476666Y-94488000D01*
X88428285Y-94391238D01*
X88428285Y-94294476D01*
X89057238Y-94004190D02*
X89105619Y-93907428D01*
X89105619Y-93713904D01*
X89057238Y-93617142D01*
X88960476Y-93568761D01*
X88912095Y-93568761D01*
X88815333Y-93617142D01*
X88766952Y-93713904D01*
X88766952Y-93859047D01*
X88718571Y-93955809D01*
X88621809Y-94004190D01*
X88573428Y-94004190D01*
X88476666Y-93955809D01*
X88428285Y-93859047D01*
X88428285Y-93713904D01*
X88476666Y-93617142D01*
X88186380Y-93181714D02*
X88138000Y-93133333D01*
X88089619Y-93036571D01*
X88089619Y-92794666D01*
X88138000Y-92697904D01*
X88186380Y-92649523D01*
X88283142Y-92601142D01*
X88379904Y-92601142D01*
X88525047Y-92649523D01*
X89105619Y-93230095D01*
X89105619Y-92601142D01*
X88089619Y-92262476D02*
X88089619Y-91633523D01*
X88476666Y-91972190D01*
X88476666Y-91827047D01*
X88525047Y-91730285D01*
X88573428Y-91681904D01*
X88670190Y-91633523D01*
X88912095Y-91633523D01*
X89008857Y-91681904D01*
X89057238Y-91730285D01*
X89105619Y-91827047D01*
X89105619Y-92117333D01*
X89057238Y-92214095D01*
X89008857Y-92262476D01*
X88186380Y-91246476D02*
X88138000Y-91198095D01*
X88089619Y-91101333D01*
X88089619Y-90859428D01*
X88138000Y-90762666D01*
X88186380Y-90714285D01*
X88283142Y-90665904D01*
X88379904Y-90665904D01*
X88525047Y-90714285D01*
X89105619Y-91294857D01*
X89105619Y-90665904D01*
X89202380Y-90472380D02*
X89202380Y-89698285D01*
X89105619Y-89456380D02*
X88428285Y-89456380D01*
X88089619Y-89456380D02*
X88138000Y-89504761D01*
X88186380Y-89456380D01*
X88138000Y-89408000D01*
X88089619Y-89456380D01*
X88186380Y-89456380D01*
X88428285Y-88972571D02*
X89105619Y-88972571D01*
X88525047Y-88972571D02*
X88476666Y-88924190D01*
X88428285Y-88827428D01*
X88428285Y-88682285D01*
X88476666Y-88585523D01*
X88573428Y-88537142D01*
X89105619Y-88537142D01*
X88428285Y-88198476D02*
X88428285Y-87811428D01*
X88089619Y-88053333D02*
X88960476Y-88053333D01*
X89057238Y-88004952D01*
X89105619Y-87908190D01*
X89105619Y-87811428D01*
X89057238Y-87085714D02*
X89105619Y-87182476D01*
X89105619Y-87376000D01*
X89057238Y-87472761D01*
X88960476Y-87521142D01*
X88573428Y-87521142D01*
X88476666Y-87472761D01*
X88428285Y-87376000D01*
X88428285Y-87182476D01*
X88476666Y-87085714D01*
X88573428Y-87037333D01*
X88670190Y-87037333D01*
X88766952Y-87521142D01*
X89105619Y-86601904D02*
X88428285Y-86601904D01*
X88621809Y-86601904D02*
X88525047Y-86553523D01*
X88476666Y-86505142D01*
X88428285Y-86408380D01*
X88428285Y-86311619D01*
X88428285Y-86118095D02*
X88428285Y-85731047D01*
X89105619Y-85972952D02*
X88234761Y-85972952D01*
X88138000Y-85924571D01*
X88089619Y-85827809D01*
X88089619Y-85731047D01*
X89105619Y-84956952D02*
X88573428Y-84956952D01*
X88476666Y-85005333D01*
X88428285Y-85102095D01*
X88428285Y-85295619D01*
X88476666Y-85392380D01*
X89057238Y-84956952D02*
X89105619Y-85053714D01*
X89105619Y-85295619D01*
X89057238Y-85392380D01*
X88960476Y-85440761D01*
X88863714Y-85440761D01*
X88766952Y-85392380D01*
X88718571Y-85295619D01*
X88718571Y-85053714D01*
X88670190Y-84956952D01*
X89057238Y-84037714D02*
X89105619Y-84134476D01*
X89105619Y-84328000D01*
X89057238Y-84424761D01*
X89008857Y-84473142D01*
X88912095Y-84521523D01*
X88621809Y-84521523D01*
X88525047Y-84473142D01*
X88476666Y-84424761D01*
X88428285Y-84328000D01*
X88428285Y-84134476D01*
X88476666Y-84037714D01*
X89057238Y-83215238D02*
X89105619Y-83312000D01*
X89105619Y-83505523D01*
X89057238Y-83602285D01*
X88960476Y-83650666D01*
X88573428Y-83650666D01*
X88476666Y-83602285D01*
X88428285Y-83505523D01*
X88428285Y-83312000D01*
X88476666Y-83215238D01*
X88573428Y-83166857D01*
X88670190Y-83166857D01*
X88766952Y-83650666D01*
X90206285Y-95939428D02*
X91222285Y-95939428D01*
X90254666Y-95939428D02*
X90206285Y-95842666D01*
X90206285Y-95649142D01*
X90254666Y-95552380D01*
X90303047Y-95504000D01*
X90399809Y-95455619D01*
X90690095Y-95455619D01*
X90786857Y-95504000D01*
X90835238Y-95552380D01*
X90883619Y-95649142D01*
X90883619Y-95842666D01*
X90835238Y-95939428D01*
X90883619Y-94584761D02*
X90351428Y-94584761D01*
X90254666Y-94633142D01*
X90206285Y-94729904D01*
X90206285Y-94923428D01*
X90254666Y-95020190D01*
X90835238Y-94584761D02*
X90883619Y-94681523D01*
X90883619Y-94923428D01*
X90835238Y-95020190D01*
X90738476Y-95068571D01*
X90641714Y-95068571D01*
X90544952Y-95020190D01*
X90496571Y-94923428D01*
X90496571Y-94681523D01*
X90448190Y-94584761D01*
X90883619Y-94100952D02*
X90206285Y-94100952D01*
X90399809Y-94100952D02*
X90303047Y-94052571D01*
X90254666Y-94004190D01*
X90206285Y-93907428D01*
X90206285Y-93810666D01*
X90206285Y-93617142D02*
X90206285Y-93230095D01*
X89867619Y-93472000D02*
X90738476Y-93472000D01*
X90835238Y-93423619D01*
X90883619Y-93326857D01*
X90883619Y-93230095D01*
X90980380Y-93133333D02*
X90980380Y-92359238D01*
X90206285Y-92117333D02*
X90883619Y-92117333D01*
X90303047Y-92117333D02*
X90254666Y-92068952D01*
X90206285Y-91972190D01*
X90206285Y-91827047D01*
X90254666Y-91730285D01*
X90351428Y-91681904D01*
X90883619Y-91681904D01*
X90206285Y-90762666D02*
X90883619Y-90762666D01*
X90206285Y-91198095D02*
X90738476Y-91198095D01*
X90835238Y-91149714D01*
X90883619Y-91052952D01*
X90883619Y-90907809D01*
X90835238Y-90811047D01*
X90786857Y-90762666D01*
X90883619Y-90278857D02*
X90206285Y-90278857D01*
X90303047Y-90278857D02*
X90254666Y-90230476D01*
X90206285Y-90133714D01*
X90206285Y-89988571D01*
X90254666Y-89891809D01*
X90351428Y-89843428D01*
X90883619Y-89843428D01*
X90351428Y-89843428D02*
X90254666Y-89795047D01*
X90206285Y-89698285D01*
X90206285Y-89553142D01*
X90254666Y-89456380D01*
X90351428Y-89408000D01*
X90883619Y-89408000D01*
X90883619Y-88924190D02*
X89867619Y-88924190D01*
X90254666Y-88924190D02*
X90206285Y-88827428D01*
X90206285Y-88633904D01*
X90254666Y-88537142D01*
X90303047Y-88488761D01*
X90399809Y-88440380D01*
X90690095Y-88440380D01*
X90786857Y-88488761D01*
X90835238Y-88537142D01*
X90883619Y-88633904D01*
X90883619Y-88827428D01*
X90835238Y-88924190D01*
X90835238Y-87617904D02*
X90883619Y-87714666D01*
X90883619Y-87908190D01*
X90835238Y-88004952D01*
X90738476Y-88053333D01*
X90351428Y-88053333D01*
X90254666Y-88004952D01*
X90206285Y-87908190D01*
X90206285Y-87714666D01*
X90254666Y-87617904D01*
X90351428Y-87569523D01*
X90448190Y-87569523D01*
X90544952Y-88053333D01*
X90883619Y-87134095D02*
X90206285Y-87134095D01*
X90399809Y-87134095D02*
X90303047Y-87085714D01*
X90254666Y-87037333D01*
X90206285Y-86940571D01*
X90206285Y-86843809D01*
X90786857Y-86505142D02*
X90835238Y-86456761D01*
X90883619Y-86505142D01*
X90835238Y-86553523D01*
X90786857Y-86505142D01*
X90883619Y-86505142D01*
X90254666Y-86505142D02*
X90303047Y-86456761D01*
X90351428Y-86505142D01*
X90303047Y-86553523D01*
X90254666Y-86505142D01*
X90351428Y-86505142D01*
X90883619Y-84715047D02*
X90883619Y-85295619D01*
X90883619Y-85005333D02*
X89867619Y-85005333D01*
X90012761Y-85102095D01*
X90109523Y-85198857D01*
X90157904Y-85295619D01*
X89964380Y-84328000D02*
X89916000Y-84279619D01*
X89867619Y-84182857D01*
X89867619Y-83940952D01*
X89916000Y-83844190D01*
X89964380Y-83795809D01*
X90061142Y-83747428D01*
X90157904Y-83747428D01*
X90303047Y-83795809D01*
X90883619Y-84376380D01*
X90883619Y-83747428D01*
X89867619Y-82828190D02*
X89867619Y-83312000D01*
X90351428Y-83360380D01*
X90303047Y-83312000D01*
X90254666Y-83215238D01*
X90254666Y-82973333D01*
X90303047Y-82876571D01*
X90351428Y-82828190D01*
X90448190Y-82779809D01*
X90690095Y-82779809D01*
X90786857Y-82828190D01*
X90835238Y-82876571D01*
X90883619Y-82973333D01*
X90883619Y-83215238D01*
X90835238Y-83312000D01*
X90786857Y-83360380D01*
X90883619Y-81812190D02*
X90883619Y-82392761D01*
X90883619Y-82102476D02*
X89867619Y-82102476D01*
X90012761Y-82199238D01*
X90109523Y-82295999D01*
X90157904Y-82392761D01*
X91645619Y-96786095D02*
X91645619Y-96689333D01*
X91694000Y-96592571D01*
X91742380Y-96544190D01*
X91839142Y-96495809D01*
X92032666Y-96447428D01*
X92274571Y-96447428D01*
X92468095Y-96495809D01*
X92564857Y-96544190D01*
X92613238Y-96592571D01*
X92661619Y-96689333D01*
X92661619Y-96786095D01*
X92613238Y-96882857D01*
X92564857Y-96931238D01*
X92468095Y-96979619D01*
X92274571Y-97028000D01*
X92032666Y-97028000D01*
X91839142Y-96979619D01*
X91742380Y-96931238D01*
X91694000Y-96882857D01*
X91645619Y-96786095D01*
X92661619Y-95963619D02*
X92661619Y-95770095D01*
X92613238Y-95673333D01*
X92564857Y-95624952D01*
X92419714Y-95528190D01*
X92226190Y-95479809D01*
X91839142Y-95479809D01*
X91742380Y-95528190D01*
X91694000Y-95576571D01*
X91645619Y-95673333D01*
X91645619Y-95866857D01*
X91694000Y-95963619D01*
X91742380Y-96012000D01*
X91839142Y-96060380D01*
X92081047Y-96060380D01*
X92177809Y-96012000D01*
X92226190Y-95963619D01*
X92274571Y-95866857D01*
X92274571Y-95673333D01*
X92226190Y-95576571D01*
X92177809Y-95528190D01*
X92081047Y-95479809D01*
X91597238Y-94318666D02*
X92903523Y-95189523D01*
X91742380Y-94028380D02*
X91694000Y-93980000D01*
X91645619Y-93883238D01*
X91645619Y-93641333D01*
X91694000Y-93544571D01*
X91742380Y-93496190D01*
X91839142Y-93447809D01*
X91935904Y-93447809D01*
X92081047Y-93496190D01*
X92661619Y-94076761D01*
X92661619Y-93447809D01*
X91645619Y-92818857D02*
X91645619Y-92722095D01*
X91694000Y-92625333D01*
X91742380Y-92576952D01*
X91839142Y-92528571D01*
X92032666Y-92480190D01*
X92274571Y-92480190D01*
X92468095Y-92528571D01*
X92564857Y-92576952D01*
X92613238Y-92625333D01*
X92661619Y-92722095D01*
X92661619Y-92818857D01*
X92613238Y-92915619D01*
X92564857Y-92964000D01*
X92468095Y-93012380D01*
X92274571Y-93060761D01*
X92032666Y-93060761D01*
X91839142Y-93012380D01*
X91742380Y-92964000D01*
X91694000Y-92915619D01*
X91645619Y-92818857D01*
X92661619Y-91512571D02*
X92661619Y-92093142D01*
X92661619Y-91802857D02*
X91645619Y-91802857D01*
X91790761Y-91899619D01*
X91887523Y-91996380D01*
X91935904Y-92093142D01*
X91645619Y-91173904D02*
X91645619Y-90496571D01*
X92661619Y-90932000D01*
X91984285Y-89432190D02*
X92661619Y-89190285D01*
X91984285Y-88948380D01*
X92613238Y-88174285D02*
X92661619Y-88271047D01*
X92661619Y-88464571D01*
X92613238Y-88561333D01*
X92516476Y-88609714D01*
X92129428Y-88609714D01*
X92032666Y-88561333D01*
X91984285Y-88464571D01*
X91984285Y-88271047D01*
X92032666Y-88174285D01*
X92129428Y-88125904D01*
X92226190Y-88125904D01*
X92322952Y-88609714D01*
X92661619Y-87690476D02*
X91984285Y-87690476D01*
X92177809Y-87690476D02*
X92081047Y-87642095D01*
X92032666Y-87593714D01*
X91984285Y-87496952D01*
X91984285Y-87400190D01*
X92661619Y-85755238D02*
X92661619Y-86335809D01*
X92661619Y-86045523D02*
X91645619Y-86045523D01*
X91790761Y-86142285D01*
X91887523Y-86239047D01*
X91935904Y-86335809D01*
X92564857Y-85319809D02*
X92613238Y-85271428D01*
X92661619Y-85319809D01*
X92613238Y-85368190D01*
X92564857Y-85319809D01*
X92661619Y-85319809D01*
X91645619Y-84642476D02*
X91645619Y-84545714D01*
X91694000Y-84448952D01*
X91742380Y-84400571D01*
X91839142Y-84352190D01*
X92032666Y-84303809D01*
X92274571Y-84303809D01*
X92468095Y-84352190D01*
X92564857Y-84400571D01*
X92613238Y-84448952D01*
X92661619Y-84545714D01*
X92661619Y-84642476D01*
X92613238Y-84739238D01*
X92564857Y-84787619D01*
X92468095Y-84836000D01*
X92274571Y-84884380D01*
X92032666Y-84884380D01*
X91839142Y-84836000D01*
X91742380Y-84787619D01*
X91694000Y-84739238D01*
X91645619Y-84642476D01*
X91645619Y-83191047D02*
X91645619Y-82562095D01*
X92032666Y-82900761D01*
X92032666Y-82755619D01*
X92081047Y-82658857D01*
X92129428Y-82610476D01*
X92226190Y-82562095D01*
X92468095Y-82562095D01*
X92564857Y-82610476D01*
X92613238Y-82658857D01*
X92661619Y-82755619D01*
X92661619Y-83045904D01*
X92613238Y-83142666D01*
X92564857Y-83191047D01*
X92661619Y-82223428D02*
X91984285Y-81691238D01*
X91984285Y-82223428D02*
X92661619Y-81691238D01*
X91742380Y-81352571D02*
X91694000Y-81304190D01*
X91645619Y-81207428D01*
X91645619Y-80965523D01*
X91694000Y-80868761D01*
X91742380Y-80820380D01*
X91839142Y-80772000D01*
X91935904Y-80772000D01*
X92081047Y-80820380D01*
X92661619Y-81400952D01*
X92661619Y-80772000D01*
D12*
%TO.C,MDB1*%
X132715000Y-71120000D02*
G75*
G03X132715000Y-71120000I-2540000J0D01*
G01*
X132715000Y-106680000D02*
G75*
G03X132715000Y-106680000I-2540000J0D01*
G01*
X92075000Y-101600000D02*
G75*
G03X92075000Y-101600000I-2540000J0D01*
G01*
X92075000Y-76200000D02*
G75*
G03X92075000Y-76200000I-2540000J0D01*
G01*
D14*
%TO.C,J1*%
X125255000Y-75005000D02*
X94455000Y-75005000D01*
X125255000Y-87555000D02*
X125255000Y-75005000D01*
X94455000Y-87555000D02*
X125255000Y-87555000D01*
X94455000Y-75005000D02*
X94455000Y-87555000D01*
%TO.C,J2*%
X125255000Y-90245000D02*
X94455000Y-90245000D01*
X125255000Y-102795000D02*
X125255000Y-90245000D01*
X94455000Y-102795000D02*
X125255000Y-102795000D01*
X94455000Y-90245000D02*
X94455000Y-102795000D01*
%TD*%
%TO.C,J1*%
D11*
X109516333Y-73103619D02*
X109516333Y-73829333D01*
X109467952Y-73974476D01*
X109371190Y-74071238D01*
X109226047Y-74119619D01*
X109129285Y-74119619D01*
X110532333Y-74119619D02*
X109951761Y-74119619D01*
X110242047Y-74119619D02*
X110242047Y-73103619D01*
X110145285Y-73248761D01*
X110048523Y-73345523D01*
X109951761Y-73393904D01*
X106057095Y-86184619D02*
X106057095Y-85168619D01*
X106395761Y-85894333D01*
X106734428Y-85168619D01*
X106734428Y-86184619D01*
X107169857Y-85894333D02*
X107653666Y-85894333D01*
X107073095Y-86184619D02*
X107411761Y-85168619D01*
X107750428Y-86184619D01*
X108572904Y-86184619D02*
X108089095Y-86184619D01*
X108089095Y-85168619D01*
X108911571Y-85652428D02*
X109250238Y-85652428D01*
X109395380Y-86184619D02*
X108911571Y-86184619D01*
X108911571Y-85168619D01*
X109395380Y-85168619D01*
X110604904Y-86184619D02*
X110604904Y-85168619D01*
X110991952Y-85168619D01*
X111088714Y-85217000D01*
X111137095Y-85265380D01*
X111185476Y-85362142D01*
X111185476Y-85507285D01*
X111137095Y-85604047D01*
X111088714Y-85652428D01*
X110991952Y-85700809D01*
X110604904Y-85700809D01*
X111620904Y-86184619D02*
X111620904Y-85168619D01*
X112104714Y-86184619D02*
X112104714Y-85168619D01*
X112685285Y-86184619D01*
X112685285Y-85168619D01*
X113120714Y-86136238D02*
X113265857Y-86184619D01*
X113507761Y-86184619D01*
X113604523Y-86136238D01*
X113652904Y-86087857D01*
X113701285Y-85991095D01*
X113701285Y-85894333D01*
X113652904Y-85797571D01*
X113604523Y-85749190D01*
X113507761Y-85700809D01*
X113314238Y-85652428D01*
X113217476Y-85604047D01*
X113169095Y-85555666D01*
X113120714Y-85458904D01*
X113120714Y-85362142D01*
X113169095Y-85265380D01*
X113217476Y-85217000D01*
X113314238Y-85168619D01*
X113556142Y-85168619D01*
X113701285Y-85217000D01*
%TO.C,J2*%
X109516333Y-88343619D02*
X109516333Y-89069333D01*
X109467952Y-89214476D01*
X109371190Y-89311238D01*
X109226047Y-89359619D01*
X109129285Y-89359619D01*
X109951761Y-88440380D02*
X110000142Y-88392000D01*
X110096904Y-88343619D01*
X110338809Y-88343619D01*
X110435571Y-88392000D01*
X110483952Y-88440380D01*
X110532333Y-88537142D01*
X110532333Y-88633904D01*
X110483952Y-88779047D01*
X109903380Y-89359619D01*
X110532333Y-89359619D01*
X103904142Y-100892428D02*
X103565476Y-100892428D01*
X103565476Y-101424619D02*
X103565476Y-100408619D01*
X104049285Y-100408619D01*
X104436333Y-100892428D02*
X104775000Y-100892428D01*
X104920142Y-101424619D02*
X104436333Y-101424619D01*
X104436333Y-100408619D01*
X104920142Y-100408619D01*
X105355571Y-101424619D02*
X105355571Y-100408619D01*
X105694238Y-101134333D01*
X106032904Y-100408619D01*
X106032904Y-101424619D01*
X106468333Y-101134333D02*
X106952142Y-101134333D01*
X106371571Y-101424619D02*
X106710238Y-100408619D01*
X107048904Y-101424619D01*
X107871380Y-101424619D02*
X107387571Y-101424619D01*
X107387571Y-100408619D01*
X108210047Y-100892428D02*
X108548714Y-100892428D01*
X108693857Y-101424619D02*
X108210047Y-101424619D01*
X108210047Y-100408619D01*
X108693857Y-100408619D01*
X109855000Y-101376238D02*
X110000142Y-101424619D01*
X110242047Y-101424619D01*
X110338809Y-101376238D01*
X110387190Y-101327857D01*
X110435571Y-101231095D01*
X110435571Y-101134333D01*
X110387190Y-101037571D01*
X110338809Y-100989190D01*
X110242047Y-100940809D01*
X110048523Y-100892428D01*
X109951761Y-100844047D01*
X109903380Y-100795666D01*
X109855000Y-100698904D01*
X109855000Y-100602142D01*
X109903380Y-100505380D01*
X109951761Y-100457000D01*
X110048523Y-100408619D01*
X110290428Y-100408619D01*
X110435571Y-100457000D01*
X111064523Y-100408619D02*
X111258047Y-100408619D01*
X111354809Y-100457000D01*
X111451571Y-100553761D01*
X111499952Y-100747285D01*
X111499952Y-101085952D01*
X111451571Y-101279476D01*
X111354809Y-101376238D01*
X111258047Y-101424619D01*
X111064523Y-101424619D01*
X110967761Y-101376238D01*
X110871000Y-101279476D01*
X110822619Y-101085952D01*
X110822619Y-100747285D01*
X110871000Y-100553761D01*
X110967761Y-100457000D01*
X111064523Y-100408619D01*
X112515952Y-101327857D02*
X112467571Y-101376238D01*
X112322428Y-101424619D01*
X112225666Y-101424619D01*
X112080523Y-101376238D01*
X111983761Y-101279476D01*
X111935380Y-101182714D01*
X111887000Y-100989190D01*
X111887000Y-100844047D01*
X111935380Y-100650523D01*
X111983761Y-100553761D01*
X112080523Y-100457000D01*
X112225666Y-100408619D01*
X112322428Y-100408619D01*
X112467571Y-100457000D01*
X112515952Y-100505380D01*
X112951380Y-101424619D02*
X112951380Y-100408619D01*
X113531952Y-101424619D02*
X113096523Y-100844047D01*
X113531952Y-100408619D02*
X112951380Y-100989190D01*
X113967380Y-100892428D02*
X114306047Y-100892428D01*
X114451190Y-101424619D02*
X113967380Y-101424619D01*
X113967380Y-100408619D01*
X114451190Y-100408619D01*
X114741476Y-100408619D02*
X115322047Y-100408619D01*
X115031761Y-101424619D02*
X115031761Y-100408619D01*
X115612333Y-101376238D02*
X115757476Y-101424619D01*
X115999380Y-101424619D01*
X116096142Y-101376238D01*
X116144523Y-101327857D01*
X116192904Y-101231095D01*
X116192904Y-101134333D01*
X116144523Y-101037571D01*
X116096142Y-100989190D01*
X115999380Y-100940809D01*
X115805857Y-100892428D01*
X115709095Y-100844047D01*
X115660714Y-100795666D01*
X115612333Y-100698904D01*
X115612333Y-100602142D01*
X115660714Y-100505380D01*
X115709095Y-100457000D01*
X115805857Y-100408619D01*
X116047761Y-100408619D01*
X116192904Y-100457000D01*
%TD*%
%LPC*%
D15*
%TO.C,MDB1*%
X130175000Y-71120000D03*
X130175000Y-106680000D03*
X89535000Y-101600000D03*
X89535000Y-76200000D03*
D16*
X88265000Y-106680000D03*
X90805000Y-106680000D03*
X93345000Y-106680000D03*
X95885000Y-106680000D03*
X98425000Y-106680000D03*
X100965000Y-106680000D03*
X103505000Y-106680000D03*
X106045000Y-106680000D03*
X108585000Y-106680000D03*
X111125000Y-106680000D03*
X113665000Y-106680000D03*
X116205000Y-106680000D03*
X118745000Y-106680000D03*
X121285000Y-106680000D03*
X123825000Y-106680000D03*
X126365000Y-106680000D03*
X126365000Y-71120000D03*
X123825000Y-71120000D03*
X121285000Y-71120000D03*
X118745000Y-71120000D03*
X116205000Y-71120000D03*
X113665000Y-71120000D03*
X111125000Y-71120000D03*
X108585000Y-71120000D03*
X106045000Y-71120000D03*
X103505000Y-71120000D03*
X100965000Y-71120000D03*
X98425000Y-71120000D03*
X95885000Y-71120000D03*
D17*
X88265000Y-71120000D03*
D16*
X93345000Y-71120000D03*
X90805000Y-71120000D03*
%TD*%
D18*
%TO.C,J1*%
X114010000Y-82700000D03*
X111240000Y-82700000D03*
X108470000Y-82700000D03*
X105700000Y-82700000D03*
X115395000Y-79860000D03*
X112625000Y-79860000D03*
X109855000Y-79860000D03*
X107085000Y-79860000D03*
D19*
X104315000Y-79860000D03*
D20*
X122347000Y-81280000D03*
X97360000Y-81280000D03*
%TD*%
D18*
%TO.C,J2*%
X114010000Y-97940000D03*
X111240000Y-97940000D03*
X108470000Y-97940000D03*
X105700000Y-97940000D03*
D19*
X115395000Y-95100000D03*
D18*
X112625000Y-95100000D03*
X109855000Y-95100000D03*
X107085000Y-95100000D03*
X104315000Y-95100000D03*
D20*
X122347000Y-96520000D03*
X97360000Y-96520000D03*
%TD*%
M02*
