%TF.GenerationSoftware,KiCad,Pcbnew,no-vcs-found-66b654f~60~ubuntu16.04.1*%
%TF.CreationDate,2017-09-18T15:45:39-04:00*%
%TF.ProjectId,rs232_interface_3x2,72733233325F696E746572666163655F,1.0*%
%TF.SameCoordinates,Original*%
%TF.FileFunction,Soldermask,Bot*%
%TF.FilePolarity,Negative*%
%FSLAX46Y46*%
G04 Gerber Fmt 4.6, Leading zero omitted, Abs format (unit mm)*
G04 Created by KiCad (PCBNEW no-vcs-found-66b654f~60~ubuntu16.04.1) date Mon Sep 18 15:45:39 2017*
%MOMM*%
%LPD*%
G01*
G04 APERTURE LIST*
%ADD10C,0.228600*%
%ADD11R,1.727200X0.838200*%
%ADD12C,3.556000*%
%ADD13O,1.854200X2.540000*%
%ADD14R,1.854200X2.540000*%
%ADD15R,2.540000X1.270000*%
%ADD16O,1.600000X2.200000*%
%ADD17R,1.600000X2.200000*%
%ADD18O,5.000000X6.000000*%
G04 APERTURE END LIST*
D10*
X156210000Y-67945000D02*
X85725000Y-67945000D01*
X156210000Y-109855000D02*
X156210000Y-67945000D01*
X85725000Y-109855000D02*
X156210000Y-109855000D01*
X85725000Y-67945000D02*
X85725000Y-109855000D01*
D11*
%TO.C,U1*%
X131445000Y-84455000D03*
X131445000Y-85725000D03*
X131445000Y-86995000D03*
X131445000Y-88265000D03*
X131445000Y-89535000D03*
X131445000Y-90805000D03*
X131445000Y-92075000D03*
X131445000Y-93345000D03*
X141605000Y-93345000D03*
X141605000Y-92075000D03*
X141605000Y-90805000D03*
X141605000Y-89535000D03*
X141605000Y-88265000D03*
X141605000Y-86995000D03*
X141605000Y-85725000D03*
X141605000Y-84455000D03*
%TD*%
D12*
%TO.C,MDB1*%
X130175000Y-71120000D03*
X130175000Y-106680000D03*
X89535000Y-101600000D03*
X89535000Y-76200000D03*
D13*
X88265000Y-106680000D03*
X90805000Y-106680000D03*
X93345000Y-106680000D03*
X95885000Y-106680000D03*
X98425000Y-106680000D03*
X100965000Y-106680000D03*
X103505000Y-106680000D03*
X106045000Y-106680000D03*
X108585000Y-106680000D03*
X111125000Y-106680000D03*
X113665000Y-106680000D03*
X116205000Y-106680000D03*
X118745000Y-106680000D03*
X121285000Y-106680000D03*
X123825000Y-106680000D03*
X126365000Y-106680000D03*
X126365000Y-71120000D03*
X123825000Y-71120000D03*
X121285000Y-71120000D03*
X118745000Y-71120000D03*
X116205000Y-71120000D03*
X113665000Y-71120000D03*
X111125000Y-71120000D03*
X108585000Y-71120000D03*
X106045000Y-71120000D03*
X103505000Y-71120000D03*
X100965000Y-71120000D03*
X98425000Y-71120000D03*
X95885000Y-71120000D03*
D14*
X88265000Y-71120000D03*
D13*
X93345000Y-71120000D03*
X90805000Y-71120000D03*
%TD*%
D15*
%TO.C,C1*%
X146050000Y-87884000D03*
X146050000Y-84836000D03*
%TD*%
%TO.C,C2*%
X146050000Y-89916000D03*
X146050000Y-92964000D03*
%TD*%
%TO.C,C3*%
X146050000Y-82804000D03*
X146050000Y-79756000D03*
%TD*%
%TO.C,C4*%
X146050000Y-98044000D03*
X146050000Y-94996000D03*
%TD*%
%TO.C,C5*%
X127000000Y-83566000D03*
X127000000Y-86614000D03*
%TD*%
D16*
%TO.C,J1*%
X114010000Y-82700000D03*
X111240000Y-82700000D03*
X108470000Y-82700000D03*
X105700000Y-82700000D03*
X115395000Y-79860000D03*
X112625000Y-79860000D03*
X109855000Y-79860000D03*
X107085000Y-79860000D03*
D17*
X104315000Y-79860000D03*
D18*
X122347000Y-81280000D03*
X97360000Y-81280000D03*
%TD*%
D16*
%TO.C,J2*%
X114010000Y-97940000D03*
X111240000Y-97940000D03*
X108470000Y-97940000D03*
X105700000Y-97940000D03*
D17*
X115395000Y-95100000D03*
D16*
X112625000Y-95100000D03*
X109855000Y-95100000D03*
X107085000Y-95100000D03*
X104315000Y-95100000D03*
D18*
X122347000Y-96520000D03*
X97360000Y-96520000D03*
%TD*%
M02*
