%TF.GenerationSoftware,KiCad,Pcbnew,no-vcs-found-66b654f~60~ubuntu16.04.1*%
%TF.CreationDate,2017-09-18T15:45:39-04:00*%
%TF.ProjectId,rs232_interface_3x2,72733233325F696E746572666163655F,1.0*%
%TF.SameCoordinates,Original*%
%TF.FileFunction,Copper,L1,Top,Signal*%
%TF.FilePolarity,Positive*%
%FSLAX46Y46*%
G04 Gerber Fmt 4.6, Leading zero omitted, Abs format (unit mm)*
G04 Created by KiCad (PCBNEW no-vcs-found-66b654f~60~ubuntu16.04.1) date Mon Sep 18 15:45:39 2017*
%MOMM*%
%LPD*%
G01*
G04 APERTURE LIST*
%TA.AperFunction,NonConductor*%
%ADD10C,0.228600*%
%TD*%
%TA.AperFunction,ComponentPad*%
%ADD11C,3.556000*%
%TD*%
%TA.AperFunction,ComponentPad*%
%ADD12O,1.854200X2.540000*%
%TD*%
%TA.AperFunction,ComponentPad*%
%ADD13R,1.854200X2.540000*%
%TD*%
%TA.AperFunction,ComponentPad*%
%ADD14O,1.600000X2.200000*%
%TD*%
%TA.AperFunction,ComponentPad*%
%ADD15R,1.600000X2.200000*%
%TD*%
%TA.AperFunction,ComponentPad*%
%ADD16O,5.000000X6.000000*%
%TD*%
%TA.AperFunction,ViaPad*%
%ADD17C,0.889000*%
%TD*%
%TA.AperFunction,Conductor*%
%ADD18C,0.812800*%
%TD*%
%TA.AperFunction,Conductor*%
%ADD19C,0.203200*%
%TD*%
G04 APERTURE END LIST*
D10*
X156210000Y-67945000D02*
X85725000Y-67945000D01*
X156210000Y-109855000D02*
X156210000Y-67945000D01*
X85725000Y-109855000D02*
X156210000Y-109855000D01*
X85725000Y-67945000D02*
X85725000Y-109855000D01*
D11*
%TO.P,MDB1,*%
%TO.N,*%
X130175000Y-71120000D03*
X130175000Y-106680000D03*
X89535000Y-101600000D03*
X89535000Y-76200000D03*
D12*
%TO.P,MDB1,AREF*%
%TO.N,N/C*%
X88265000Y-106680000D03*
%TO.P,MDB1,VEE*%
X90805000Y-106680000D03*
%TO.P,MDB1,AGND*%
X93345000Y-106680000D03*
%TO.P,MDB1,3V3*%
%TO.N,+3V3*%
X95885000Y-106680000D03*
%TO.P,MDB1,23*%
%TO.N,N/C*%
X98425000Y-106680000D03*
%TO.P,MDB1,22*%
X100965000Y-106680000D03*
%TO.P,MDB1,21*%
X103505000Y-106680000D03*
%TO.P,MDB1,20*%
X106045000Y-106680000D03*
%TO.P,MDB1,19*%
X108585000Y-106680000D03*
%TO.P,MDB1,18*%
X111125000Y-106680000D03*
%TO.P,MDB1,17*%
X113665000Y-106680000D03*
%TO.P,MDB1,16*%
X116205000Y-106680000D03*
%TO.P,MDB1,15*%
X118745000Y-106680000D03*
%TO.P,MDB1,14*%
X121285000Y-106680000D03*
%TO.P,MDB1,13*%
X123825000Y-106680000D03*
%TO.P,MDB1,DAC*%
X126365000Y-106680000D03*
%TO.P,MDB1,28*%
X126365000Y-71120000D03*
%TO.P,MDB1,12*%
X123825000Y-71120000D03*
%TO.P,MDB1,11*%
X121285000Y-71120000D03*
%TO.P,MDB1,10*%
%TO.N,/TX2*%
X118745000Y-71120000D03*
%TO.P,MDB1,9*%
%TO.N,/RX2*%
X116205000Y-71120000D03*
%TO.P,MDB1,29*%
%TO.N,N/C*%
X113665000Y-71120000D03*
%TO.P,MDB1,30*%
X111125000Y-71120000D03*
%TO.P,MDB1,6*%
X108585000Y-71120000D03*
%TO.P,MDB1,5*%
X106045000Y-71120000D03*
%TO.P,MDB1,4*%
X103505000Y-71120000D03*
%TO.P,MDB1,3*%
X100965000Y-71120000D03*
%TO.P,MDB1,2*%
X98425000Y-71120000D03*
%TO.P,MDB1,25*%
X95885000Y-71120000D03*
D13*
%TO.P,MDB1,VDD*%
X88265000Y-71120000D03*
D12*
%TO.P,MDB1,24*%
X93345000Y-71120000D03*
%TO.P,MDB1,GND*%
%TO.N,GND*%
X90805000Y-71120000D03*
%TD*%
D14*
%TO.P,J1,9*%
%TO.N,N/C*%
X114010000Y-82700000D03*
%TO.P,J1,8*%
X111240000Y-82700000D03*
%TO.P,J1,7*%
X108470000Y-82700000D03*
%TO.P,J1,6*%
X105700000Y-82700000D03*
%TO.P,J1,5*%
%TO.N,GND*%
X115395000Y-79860000D03*
%TO.P,J1,4*%
%TO.N,N/C*%
X112625000Y-79860000D03*
%TO.P,J1,3*%
%TO.N,/TXD*%
X109855000Y-79860000D03*
%TO.P,J1,2*%
%TO.N,/RXD*%
X107085000Y-79860000D03*
D15*
%TO.P,J1,1*%
%TO.N,N/C*%
X104315000Y-79860000D03*
D16*
%TO.P,J1,*%
%TO.N,*%
X122347000Y-81280000D03*
X97360000Y-81280000D03*
%TD*%
D14*
%TO.P,J2,6*%
%TO.N,N/C*%
X114010000Y-97940000D03*
%TO.P,J2,7*%
X111240000Y-97940000D03*
%TO.P,J2,8*%
X108470000Y-97940000D03*
%TO.P,J2,9*%
X105700000Y-97940000D03*
D15*
%TO.P,J2,1*%
X115395000Y-95100000D03*
D14*
%TO.P,J2,2*%
%TO.N,/TXD*%
X112625000Y-95100000D03*
%TO.P,J2,3*%
%TO.N,/RXD*%
X109855000Y-95100000D03*
%TO.P,J2,4*%
%TO.N,N/C*%
X107085000Y-95100000D03*
%TO.P,J2,5*%
%TO.N,GND*%
X104315000Y-95100000D03*
D16*
%TO.P,J2,*%
%TO.N,*%
X122347000Y-96520000D03*
X97360000Y-96520000D03*
%TD*%
D17*
%TO.N,+3V3*%
X124242800Y-85429000D03*
%TD*%
D18*
%TO.N,+3V3*%
X111570800Y-85429000D02*
X124242800Y-85429000D01*
X101429500Y-95570300D02*
X111570800Y-85429000D01*
X101429500Y-99204800D02*
X101429500Y-95570300D01*
X95885000Y-104749300D02*
X101429500Y-99204800D01*
X95885000Y-106680000D02*
X95885000Y-104749300D01*
%TD*%
D19*
%TO.N,GND*%
G36*
X155790900Y-109435900D02*
X86144100Y-109435900D01*
X86144100Y-106306248D01*
X87033100Y-106306248D01*
X87033100Y-107053752D01*
X87126873Y-107525180D01*
X87393915Y-107924837D01*
X87793572Y-108191879D01*
X88265000Y-108285652D01*
X88736428Y-108191879D01*
X89136085Y-107924837D01*
X89403127Y-107525180D01*
X89496900Y-107053752D01*
X89496900Y-106306248D01*
X89573100Y-106306248D01*
X89573100Y-107053752D01*
X89666873Y-107525180D01*
X89933915Y-107924837D01*
X90333572Y-108191879D01*
X90805000Y-108285652D01*
X91276428Y-108191879D01*
X91676085Y-107924837D01*
X91943127Y-107525180D01*
X92036900Y-107053752D01*
X92036900Y-106306248D01*
X92113100Y-106306248D01*
X92113100Y-107053752D01*
X92206873Y-107525180D01*
X92473915Y-107924837D01*
X92873572Y-108191879D01*
X93345000Y-108285652D01*
X93816428Y-108191879D01*
X94216085Y-107924837D01*
X94483127Y-107525180D01*
X94576900Y-107053752D01*
X94576900Y-106306248D01*
X94576703Y-106305253D01*
X94602300Y-106305253D01*
X94602300Y-107054747D01*
X94699940Y-107545615D01*
X94977994Y-107961753D01*
X95394132Y-108239807D01*
X95885000Y-108337447D01*
X96375868Y-108239807D01*
X96792006Y-107961753D01*
X97070060Y-107545615D01*
X97167700Y-107054747D01*
X97167700Y-106306248D01*
X97193100Y-106306248D01*
X97193100Y-107053752D01*
X97286873Y-107525180D01*
X97553915Y-107924837D01*
X97953572Y-108191879D01*
X98425000Y-108285652D01*
X98896428Y-108191879D01*
X99296085Y-107924837D01*
X99563127Y-107525180D01*
X99656900Y-107053752D01*
X99656900Y-106306248D01*
X99733100Y-106306248D01*
X99733100Y-107053752D01*
X99826873Y-107525180D01*
X100093915Y-107924837D01*
X100493572Y-108191879D01*
X100965000Y-108285652D01*
X101436428Y-108191879D01*
X101836085Y-107924837D01*
X102103127Y-107525180D01*
X102196900Y-107053752D01*
X102196900Y-106306248D01*
X102273100Y-106306248D01*
X102273100Y-107053752D01*
X102366873Y-107525180D01*
X102633915Y-107924837D01*
X103033572Y-108191879D01*
X103505000Y-108285652D01*
X103976428Y-108191879D01*
X104376085Y-107924837D01*
X104643127Y-107525180D01*
X104736900Y-107053752D01*
X104736900Y-106306248D01*
X104813100Y-106306248D01*
X104813100Y-107053752D01*
X104906873Y-107525180D01*
X105173915Y-107924837D01*
X105573572Y-108191879D01*
X106045000Y-108285652D01*
X106516428Y-108191879D01*
X106916085Y-107924837D01*
X107183127Y-107525180D01*
X107276900Y-107053752D01*
X107276900Y-106306248D01*
X107353100Y-106306248D01*
X107353100Y-107053752D01*
X107446873Y-107525180D01*
X107713915Y-107924837D01*
X108113572Y-108191879D01*
X108585000Y-108285652D01*
X109056428Y-108191879D01*
X109456085Y-107924837D01*
X109723127Y-107525180D01*
X109816900Y-107053752D01*
X109816900Y-106306248D01*
X109893100Y-106306248D01*
X109893100Y-107053752D01*
X109986873Y-107525180D01*
X110253915Y-107924837D01*
X110653572Y-108191879D01*
X111125000Y-108285652D01*
X111596428Y-108191879D01*
X111996085Y-107924837D01*
X112263127Y-107525180D01*
X112356900Y-107053752D01*
X112356900Y-106306248D01*
X112433100Y-106306248D01*
X112433100Y-107053752D01*
X112526873Y-107525180D01*
X112793915Y-107924837D01*
X113193572Y-108191879D01*
X113665000Y-108285652D01*
X114136428Y-108191879D01*
X114536085Y-107924837D01*
X114803127Y-107525180D01*
X114896900Y-107053752D01*
X114896900Y-106306248D01*
X114973100Y-106306248D01*
X114973100Y-107053752D01*
X115066873Y-107525180D01*
X115333915Y-107924837D01*
X115733572Y-108191879D01*
X116205000Y-108285652D01*
X116676428Y-108191879D01*
X117076085Y-107924837D01*
X117343127Y-107525180D01*
X117436900Y-107053752D01*
X117436900Y-106306248D01*
X117513100Y-106306248D01*
X117513100Y-107053752D01*
X117606873Y-107525180D01*
X117873915Y-107924837D01*
X118273572Y-108191879D01*
X118745000Y-108285652D01*
X119216428Y-108191879D01*
X119616085Y-107924837D01*
X119883127Y-107525180D01*
X119976900Y-107053752D01*
X119976900Y-106306248D01*
X120053100Y-106306248D01*
X120053100Y-107053752D01*
X120146873Y-107525180D01*
X120413915Y-107924837D01*
X120813572Y-108191879D01*
X121285000Y-108285652D01*
X121756428Y-108191879D01*
X122156085Y-107924837D01*
X122423127Y-107525180D01*
X122516900Y-107053752D01*
X122516900Y-106306248D01*
X122593100Y-106306248D01*
X122593100Y-107053752D01*
X122686873Y-107525180D01*
X122953915Y-107924837D01*
X123353572Y-108191879D01*
X123825000Y-108285652D01*
X124296428Y-108191879D01*
X124696085Y-107924837D01*
X124963127Y-107525180D01*
X125056900Y-107053752D01*
X125056900Y-106306248D01*
X125133100Y-106306248D01*
X125133100Y-107053752D01*
X125226873Y-107525180D01*
X125493915Y-107924837D01*
X125893572Y-108191879D01*
X126365000Y-108285652D01*
X126836428Y-108191879D01*
X127236085Y-107924837D01*
X127503127Y-107525180D01*
X127589197Y-107092477D01*
X128091840Y-107092477D01*
X128408259Y-107858270D01*
X128993648Y-108444682D01*
X129758888Y-108762437D01*
X130587477Y-108763160D01*
X131353270Y-108446741D01*
X131939682Y-107861352D01*
X132257437Y-107096112D01*
X132258160Y-106267523D01*
X131941741Y-105501730D01*
X131356352Y-104915318D01*
X130591112Y-104597563D01*
X129762523Y-104596840D01*
X128996730Y-104913259D01*
X128410318Y-105498648D01*
X128092563Y-106263888D01*
X128091840Y-107092477D01*
X127589197Y-107092477D01*
X127596900Y-107053752D01*
X127596900Y-106306248D01*
X127503127Y-105834820D01*
X127236085Y-105435163D01*
X126836428Y-105168121D01*
X126365000Y-105074348D01*
X125893572Y-105168121D01*
X125493915Y-105435163D01*
X125226873Y-105834820D01*
X125133100Y-106306248D01*
X125056900Y-106306248D01*
X124963127Y-105834820D01*
X124696085Y-105435163D01*
X124296428Y-105168121D01*
X123825000Y-105074348D01*
X123353572Y-105168121D01*
X122953915Y-105435163D01*
X122686873Y-105834820D01*
X122593100Y-106306248D01*
X122516900Y-106306248D01*
X122423127Y-105834820D01*
X122156085Y-105435163D01*
X121756428Y-105168121D01*
X121285000Y-105074348D01*
X120813572Y-105168121D01*
X120413915Y-105435163D01*
X120146873Y-105834820D01*
X120053100Y-106306248D01*
X119976900Y-106306248D01*
X119883127Y-105834820D01*
X119616085Y-105435163D01*
X119216428Y-105168121D01*
X118745000Y-105074348D01*
X118273572Y-105168121D01*
X117873915Y-105435163D01*
X117606873Y-105834820D01*
X117513100Y-106306248D01*
X117436900Y-106306248D01*
X117343127Y-105834820D01*
X117076085Y-105435163D01*
X116676428Y-105168121D01*
X116205000Y-105074348D01*
X115733572Y-105168121D01*
X115333915Y-105435163D01*
X115066873Y-105834820D01*
X114973100Y-106306248D01*
X114896900Y-106306248D01*
X114803127Y-105834820D01*
X114536085Y-105435163D01*
X114136428Y-105168121D01*
X113665000Y-105074348D01*
X113193572Y-105168121D01*
X112793915Y-105435163D01*
X112526873Y-105834820D01*
X112433100Y-106306248D01*
X112356900Y-106306248D01*
X112263127Y-105834820D01*
X111996085Y-105435163D01*
X111596428Y-105168121D01*
X111125000Y-105074348D01*
X110653572Y-105168121D01*
X110253915Y-105435163D01*
X109986873Y-105834820D01*
X109893100Y-106306248D01*
X109816900Y-106306248D01*
X109723127Y-105834820D01*
X109456085Y-105435163D01*
X109056428Y-105168121D01*
X108585000Y-105074348D01*
X108113572Y-105168121D01*
X107713915Y-105435163D01*
X107446873Y-105834820D01*
X107353100Y-106306248D01*
X107276900Y-106306248D01*
X107183127Y-105834820D01*
X106916085Y-105435163D01*
X106516428Y-105168121D01*
X106045000Y-105074348D01*
X105573572Y-105168121D01*
X105173915Y-105435163D01*
X104906873Y-105834820D01*
X104813100Y-106306248D01*
X104736900Y-106306248D01*
X104643127Y-105834820D01*
X104376085Y-105435163D01*
X103976428Y-105168121D01*
X103505000Y-105074348D01*
X103033572Y-105168121D01*
X102633915Y-105435163D01*
X102366873Y-105834820D01*
X102273100Y-106306248D01*
X102196900Y-106306248D01*
X102103127Y-105834820D01*
X101836085Y-105435163D01*
X101436428Y-105168121D01*
X100965000Y-105074348D01*
X100493572Y-105168121D01*
X100093915Y-105435163D01*
X99826873Y-105834820D01*
X99733100Y-106306248D01*
X99656900Y-106306248D01*
X99563127Y-105834820D01*
X99296085Y-105435163D01*
X98896428Y-105168121D01*
X98425000Y-105074348D01*
X97953572Y-105168121D01*
X97553915Y-105435163D01*
X97286873Y-105834820D01*
X97193100Y-106306248D01*
X97167700Y-106306248D01*
X97167700Y-106305253D01*
X97070060Y-105814385D01*
X96792006Y-105398247D01*
X96647000Y-105301357D01*
X96647000Y-105064930D01*
X101968315Y-99743615D01*
X102133496Y-99496405D01*
X102191500Y-99204800D01*
X102191500Y-97612478D01*
X104595200Y-97612478D01*
X104595200Y-98267522D01*
X104679298Y-98690311D01*
X104918788Y-99048734D01*
X105277211Y-99288224D01*
X105700000Y-99372322D01*
X106122789Y-99288224D01*
X106481212Y-99048734D01*
X106720702Y-98690311D01*
X106804800Y-98267522D01*
X106804800Y-97612478D01*
X107365200Y-97612478D01*
X107365200Y-98267522D01*
X107449298Y-98690311D01*
X107688788Y-99048734D01*
X108047211Y-99288224D01*
X108470000Y-99372322D01*
X108892789Y-99288224D01*
X109251212Y-99048734D01*
X109490702Y-98690311D01*
X109574800Y-98267522D01*
X109574800Y-97612478D01*
X110135200Y-97612478D01*
X110135200Y-98267522D01*
X110219298Y-98690311D01*
X110458788Y-99048734D01*
X110817211Y-99288224D01*
X111240000Y-99372322D01*
X111662789Y-99288224D01*
X112021212Y-99048734D01*
X112260702Y-98690311D01*
X112344800Y-98267522D01*
X112344800Y-97612478D01*
X112905200Y-97612478D01*
X112905200Y-98267522D01*
X112989298Y-98690311D01*
X113228788Y-99048734D01*
X113587211Y-99288224D01*
X114010000Y-99372322D01*
X114432789Y-99288224D01*
X114791212Y-99048734D01*
X115030702Y-98690311D01*
X115114800Y-98267522D01*
X115114800Y-97612478D01*
X115030702Y-97189689D01*
X114791212Y-96831266D01*
X114432789Y-96591776D01*
X114010000Y-96507678D01*
X113587211Y-96591776D01*
X113228788Y-96831266D01*
X112989298Y-97189689D01*
X112905200Y-97612478D01*
X112344800Y-97612478D01*
X112260702Y-97189689D01*
X112021212Y-96831266D01*
X111662789Y-96591776D01*
X111240000Y-96507678D01*
X110817211Y-96591776D01*
X110458788Y-96831266D01*
X110219298Y-97189689D01*
X110135200Y-97612478D01*
X109574800Y-97612478D01*
X109490702Y-97189689D01*
X109251212Y-96831266D01*
X108892789Y-96591776D01*
X108470000Y-96507678D01*
X108047211Y-96591776D01*
X107688788Y-96831266D01*
X107449298Y-97189689D01*
X107365200Y-97612478D01*
X106804800Y-97612478D01*
X106720702Y-97189689D01*
X106481212Y-96831266D01*
X106122789Y-96591776D01*
X105700000Y-96507678D01*
X105277211Y-96591776D01*
X104918788Y-96831266D01*
X104679298Y-97189689D01*
X104595200Y-97612478D01*
X102191500Y-97612478D01*
X102191500Y-95885930D01*
X102905400Y-95172030D01*
X102905400Y-95252402D01*
X103049854Y-95252402D01*
X102891818Y-95475970D01*
X103029224Y-96014815D01*
X103362377Y-96460060D01*
X103840559Y-96743921D01*
X103945259Y-96760244D01*
X104162600Y-96647929D01*
X104162600Y-95252400D01*
X104467400Y-95252400D01*
X104467400Y-96647929D01*
X104684741Y-96760244D01*
X104789441Y-96743921D01*
X105267623Y-96460060D01*
X105600776Y-96014815D01*
X105738182Y-95475970D01*
X105580145Y-95252400D01*
X104467400Y-95252400D01*
X104162600Y-95252400D01*
X104142600Y-95252400D01*
X104142600Y-94947600D01*
X104162600Y-94947600D01*
X104162600Y-94927600D01*
X104467400Y-94927600D01*
X104467400Y-94947600D01*
X105580145Y-94947600D01*
X105703935Y-94772478D01*
X105980200Y-94772478D01*
X105980200Y-95427522D01*
X106064298Y-95850311D01*
X106303788Y-96208734D01*
X106662211Y-96448224D01*
X107085000Y-96532322D01*
X107507789Y-96448224D01*
X107866212Y-96208734D01*
X108105702Y-95850311D01*
X108189800Y-95427522D01*
X108189800Y-94772478D01*
X108750200Y-94772478D01*
X108750200Y-95427522D01*
X108834298Y-95850311D01*
X109073788Y-96208734D01*
X109432211Y-96448224D01*
X109855000Y-96532322D01*
X110277789Y-96448224D01*
X110636212Y-96208734D01*
X110875702Y-95850311D01*
X110959800Y-95427522D01*
X110959800Y-94772478D01*
X111520200Y-94772478D01*
X111520200Y-95427522D01*
X111604298Y-95850311D01*
X111843788Y-96208734D01*
X112202211Y-96448224D01*
X112625000Y-96532322D01*
X113047789Y-96448224D01*
X113406212Y-96208734D01*
X113645702Y-95850311D01*
X113729800Y-95427522D01*
X113729800Y-94772478D01*
X113645702Y-94349689D01*
X113412048Y-94000000D01*
X114284229Y-94000000D01*
X114284229Y-96200000D01*
X114307885Y-96318927D01*
X114375252Y-96419748D01*
X114476073Y-96487115D01*
X114595000Y-96510771D01*
X116195000Y-96510771D01*
X116313927Y-96487115D01*
X116414748Y-96419748D01*
X116482115Y-96318927D01*
X116505771Y-96200000D01*
X116505771Y-95955255D01*
X119542200Y-95955255D01*
X119542200Y-97084745D01*
X119755703Y-98158095D01*
X120363707Y-99068038D01*
X121273650Y-99676042D01*
X122347000Y-99889545D01*
X123420350Y-99676042D01*
X124330293Y-99068038D01*
X124938297Y-98158095D01*
X125151800Y-97084745D01*
X125151800Y-95955255D01*
X124938297Y-94881905D01*
X124330293Y-93971962D01*
X123420350Y-93363958D01*
X122347000Y-93150455D01*
X121273650Y-93363958D01*
X120363707Y-93971962D01*
X119755703Y-94881905D01*
X119542200Y-95955255D01*
X116505771Y-95955255D01*
X116505771Y-94000000D01*
X116482115Y-93881073D01*
X116414748Y-93780252D01*
X116313927Y-93712885D01*
X116195000Y-93689229D01*
X114595000Y-93689229D01*
X114476073Y-93712885D01*
X114375252Y-93780252D01*
X114307885Y-93881073D01*
X114284229Y-94000000D01*
X113412048Y-94000000D01*
X113406212Y-93991266D01*
X113047789Y-93751776D01*
X112625000Y-93667678D01*
X112202211Y-93751776D01*
X111843788Y-93991266D01*
X111604298Y-94349689D01*
X111520200Y-94772478D01*
X110959800Y-94772478D01*
X110875702Y-94349689D01*
X110636212Y-93991266D01*
X110277789Y-93751776D01*
X109855000Y-93667678D01*
X109432211Y-93751776D01*
X109073788Y-93991266D01*
X108834298Y-94349689D01*
X108750200Y-94772478D01*
X108189800Y-94772478D01*
X108105702Y-94349689D01*
X107866212Y-93991266D01*
X107507789Y-93751776D01*
X107085000Y-93667678D01*
X106662211Y-93751776D01*
X106303788Y-93991266D01*
X106064298Y-94349689D01*
X105980200Y-94772478D01*
X105703935Y-94772478D01*
X105738182Y-94724030D01*
X105600776Y-94185185D01*
X105267623Y-93739940D01*
X104789441Y-93456079D01*
X104684741Y-93439756D01*
X104587340Y-93490090D01*
X111886430Y-86191000D01*
X123991532Y-86191000D01*
X124082952Y-86228961D01*
X124401252Y-86229239D01*
X124695428Y-86107687D01*
X124920696Y-85882812D01*
X125042761Y-85588848D01*
X125043039Y-85270548D01*
X124921487Y-84976372D01*
X124696612Y-84751104D01*
X124402648Y-84629039D01*
X124084348Y-84628761D01*
X123991803Y-84667000D01*
X111570800Y-84667000D01*
X111279195Y-84725004D01*
X111031985Y-84890185D01*
X100890685Y-95031485D01*
X100725504Y-95278695D01*
X100667500Y-95570300D01*
X100667500Y-98889170D01*
X95346185Y-104210485D01*
X95181004Y-104457695D01*
X95123000Y-104749300D01*
X95123000Y-105301357D01*
X94977994Y-105398247D01*
X94699940Y-105814385D01*
X94602300Y-106305253D01*
X94576703Y-106305253D01*
X94483127Y-105834820D01*
X94216085Y-105435163D01*
X93816428Y-105168121D01*
X93345000Y-105074348D01*
X92873572Y-105168121D01*
X92473915Y-105435163D01*
X92206873Y-105834820D01*
X92113100Y-106306248D01*
X92036900Y-106306248D01*
X91943127Y-105834820D01*
X91676085Y-105435163D01*
X91276428Y-105168121D01*
X90805000Y-105074348D01*
X90333572Y-105168121D01*
X89933915Y-105435163D01*
X89666873Y-105834820D01*
X89573100Y-106306248D01*
X89496900Y-106306248D01*
X89403127Y-105834820D01*
X89136085Y-105435163D01*
X88736428Y-105168121D01*
X88265000Y-105074348D01*
X87793572Y-105168121D01*
X87393915Y-105435163D01*
X87126873Y-105834820D01*
X87033100Y-106306248D01*
X86144100Y-106306248D01*
X86144100Y-102012477D01*
X87451840Y-102012477D01*
X87768259Y-102778270D01*
X88353648Y-103364682D01*
X89118888Y-103682437D01*
X89947477Y-103683160D01*
X90713270Y-103366741D01*
X91299682Y-102781352D01*
X91617437Y-102016112D01*
X91618160Y-101187523D01*
X91301741Y-100421730D01*
X90716352Y-99835318D01*
X89951112Y-99517563D01*
X89122523Y-99516840D01*
X88356730Y-99833259D01*
X87770318Y-100418648D01*
X87452563Y-101183888D01*
X87451840Y-102012477D01*
X86144100Y-102012477D01*
X86144100Y-95955255D01*
X94555200Y-95955255D01*
X94555200Y-97084745D01*
X94768703Y-98158095D01*
X95376707Y-99068038D01*
X96286650Y-99676042D01*
X97360000Y-99889545D01*
X98433350Y-99676042D01*
X99343293Y-99068038D01*
X99951297Y-98158095D01*
X100164800Y-97084745D01*
X100164800Y-95955255D01*
X99951297Y-94881905D01*
X99343293Y-93971962D01*
X98433350Y-93363958D01*
X97360000Y-93150455D01*
X96286650Y-93363958D01*
X95376707Y-93971962D01*
X94768703Y-94881905D01*
X94555200Y-95955255D01*
X86144100Y-95955255D01*
X86144100Y-80715255D01*
X94555200Y-80715255D01*
X94555200Y-81844745D01*
X94768703Y-82918095D01*
X95376707Y-83828038D01*
X96286650Y-84436042D01*
X97360000Y-84649545D01*
X98433350Y-84436042D01*
X99343293Y-83828038D01*
X99951297Y-82918095D01*
X100059827Y-82372478D01*
X104595200Y-82372478D01*
X104595200Y-83027522D01*
X104679298Y-83450311D01*
X104918788Y-83808734D01*
X105277211Y-84048224D01*
X105700000Y-84132322D01*
X106122789Y-84048224D01*
X106481212Y-83808734D01*
X106720702Y-83450311D01*
X106804800Y-83027522D01*
X106804800Y-82372478D01*
X107365200Y-82372478D01*
X107365200Y-83027522D01*
X107449298Y-83450311D01*
X107688788Y-83808734D01*
X108047211Y-84048224D01*
X108470000Y-84132322D01*
X108892789Y-84048224D01*
X109251212Y-83808734D01*
X109490702Y-83450311D01*
X109574800Y-83027522D01*
X109574800Y-82372478D01*
X110135200Y-82372478D01*
X110135200Y-83027522D01*
X110219298Y-83450311D01*
X110458788Y-83808734D01*
X110817211Y-84048224D01*
X111240000Y-84132322D01*
X111662789Y-84048224D01*
X112021212Y-83808734D01*
X112260702Y-83450311D01*
X112344800Y-83027522D01*
X112344800Y-82372478D01*
X112905200Y-82372478D01*
X112905200Y-83027522D01*
X112989298Y-83450311D01*
X113228788Y-83808734D01*
X113587211Y-84048224D01*
X114010000Y-84132322D01*
X114432789Y-84048224D01*
X114791212Y-83808734D01*
X115030702Y-83450311D01*
X115114800Y-83027522D01*
X115114800Y-82372478D01*
X115030702Y-81949689D01*
X114791212Y-81591266D01*
X114432789Y-81351776D01*
X114010000Y-81267678D01*
X113587211Y-81351776D01*
X113228788Y-81591266D01*
X112989298Y-81949689D01*
X112905200Y-82372478D01*
X112344800Y-82372478D01*
X112260702Y-81949689D01*
X112021212Y-81591266D01*
X111662789Y-81351776D01*
X111240000Y-81267678D01*
X110817211Y-81351776D01*
X110458788Y-81591266D01*
X110219298Y-81949689D01*
X110135200Y-82372478D01*
X109574800Y-82372478D01*
X109490702Y-81949689D01*
X109251212Y-81591266D01*
X108892789Y-81351776D01*
X108470000Y-81267678D01*
X108047211Y-81351776D01*
X107688788Y-81591266D01*
X107449298Y-81949689D01*
X107365200Y-82372478D01*
X106804800Y-82372478D01*
X106720702Y-81949689D01*
X106481212Y-81591266D01*
X106122789Y-81351776D01*
X105700000Y-81267678D01*
X105277211Y-81351776D01*
X104918788Y-81591266D01*
X104679298Y-81949689D01*
X104595200Y-82372478D01*
X100059827Y-82372478D01*
X100164800Y-81844745D01*
X100164800Y-80715255D01*
X99951297Y-79641905D01*
X99362028Y-78760000D01*
X103204229Y-78760000D01*
X103204229Y-80960000D01*
X103227885Y-81078927D01*
X103295252Y-81179748D01*
X103396073Y-81247115D01*
X103515000Y-81270771D01*
X105115000Y-81270771D01*
X105233927Y-81247115D01*
X105334748Y-81179748D01*
X105402115Y-81078927D01*
X105425771Y-80960000D01*
X105425771Y-79532478D01*
X105980200Y-79532478D01*
X105980200Y-80187522D01*
X106064298Y-80610311D01*
X106303788Y-80968734D01*
X106662211Y-81208224D01*
X107085000Y-81292322D01*
X107507789Y-81208224D01*
X107866212Y-80968734D01*
X108105702Y-80610311D01*
X108189800Y-80187522D01*
X108189800Y-79532478D01*
X108750200Y-79532478D01*
X108750200Y-80187522D01*
X108834298Y-80610311D01*
X109073788Y-80968734D01*
X109432211Y-81208224D01*
X109855000Y-81292322D01*
X110277789Y-81208224D01*
X110636212Y-80968734D01*
X110875702Y-80610311D01*
X110959800Y-80187522D01*
X110959800Y-79532478D01*
X111520200Y-79532478D01*
X111520200Y-80187522D01*
X111604298Y-80610311D01*
X111843788Y-80968734D01*
X112202211Y-81208224D01*
X112625000Y-81292322D01*
X113047789Y-81208224D01*
X113406212Y-80968734D01*
X113645702Y-80610311D01*
X113720163Y-80235970D01*
X113971818Y-80235970D01*
X114109224Y-80774815D01*
X114442377Y-81220060D01*
X114920559Y-81503921D01*
X115025259Y-81520244D01*
X115242600Y-81407929D01*
X115242600Y-80012400D01*
X115547400Y-80012400D01*
X115547400Y-81407929D01*
X115764741Y-81520244D01*
X115869441Y-81503921D01*
X116347623Y-81220060D01*
X116680776Y-80774815D01*
X116695963Y-80715255D01*
X119542200Y-80715255D01*
X119542200Y-81844745D01*
X119755703Y-82918095D01*
X120363707Y-83828038D01*
X121273650Y-84436042D01*
X122347000Y-84649545D01*
X123420350Y-84436042D01*
X124330293Y-83828038D01*
X124938297Y-82918095D01*
X125151800Y-81844745D01*
X125151800Y-80715255D01*
X124938297Y-79641905D01*
X124330293Y-78731962D01*
X123420350Y-78123958D01*
X122347000Y-77910455D01*
X121273650Y-78123958D01*
X120363707Y-78731962D01*
X119755703Y-79641905D01*
X119542200Y-80715255D01*
X116695963Y-80715255D01*
X116818182Y-80235970D01*
X116660145Y-80012400D01*
X115547400Y-80012400D01*
X115242600Y-80012400D01*
X114129855Y-80012400D01*
X113971818Y-80235970D01*
X113720163Y-80235970D01*
X113729800Y-80187522D01*
X113729800Y-79532478D01*
X113720164Y-79484030D01*
X113971818Y-79484030D01*
X114129855Y-79707600D01*
X115242600Y-79707600D01*
X115242600Y-78312071D01*
X115547400Y-78312071D01*
X115547400Y-79707600D01*
X116660145Y-79707600D01*
X116818182Y-79484030D01*
X116680776Y-78945185D01*
X116347623Y-78499940D01*
X115869441Y-78216079D01*
X115764741Y-78199756D01*
X115547400Y-78312071D01*
X115242600Y-78312071D01*
X115025259Y-78199756D01*
X114920559Y-78216079D01*
X114442377Y-78499940D01*
X114109224Y-78945185D01*
X113971818Y-79484030D01*
X113720164Y-79484030D01*
X113645702Y-79109689D01*
X113406212Y-78751266D01*
X113047789Y-78511776D01*
X112625000Y-78427678D01*
X112202211Y-78511776D01*
X111843788Y-78751266D01*
X111604298Y-79109689D01*
X111520200Y-79532478D01*
X110959800Y-79532478D01*
X110875702Y-79109689D01*
X110636212Y-78751266D01*
X110277789Y-78511776D01*
X109855000Y-78427678D01*
X109432211Y-78511776D01*
X109073788Y-78751266D01*
X108834298Y-79109689D01*
X108750200Y-79532478D01*
X108189800Y-79532478D01*
X108105702Y-79109689D01*
X107866212Y-78751266D01*
X107507789Y-78511776D01*
X107085000Y-78427678D01*
X106662211Y-78511776D01*
X106303788Y-78751266D01*
X106064298Y-79109689D01*
X105980200Y-79532478D01*
X105425771Y-79532478D01*
X105425771Y-78760000D01*
X105402115Y-78641073D01*
X105334748Y-78540252D01*
X105233927Y-78472885D01*
X105115000Y-78449229D01*
X103515000Y-78449229D01*
X103396073Y-78472885D01*
X103295252Y-78540252D01*
X103227885Y-78641073D01*
X103204229Y-78760000D01*
X99362028Y-78760000D01*
X99343293Y-78731962D01*
X98433350Y-78123958D01*
X97360000Y-77910455D01*
X96286650Y-78123958D01*
X95376707Y-78731962D01*
X94768703Y-79641905D01*
X94555200Y-80715255D01*
X86144100Y-80715255D01*
X86144100Y-76612477D01*
X87451840Y-76612477D01*
X87768259Y-77378270D01*
X88353648Y-77964682D01*
X89118888Y-78282437D01*
X89947477Y-78283160D01*
X90713270Y-77966741D01*
X91299682Y-77381352D01*
X91617437Y-76616112D01*
X91618160Y-75787523D01*
X91301741Y-75021730D01*
X90716352Y-74435318D01*
X89951112Y-74117563D01*
X89122523Y-74116840D01*
X88356730Y-74433259D01*
X87770318Y-75018648D01*
X87452563Y-75783888D01*
X87451840Y-76612477D01*
X86144100Y-76612477D01*
X86144100Y-69850000D01*
X87027129Y-69850000D01*
X87027129Y-72390000D01*
X87050785Y-72508927D01*
X87118152Y-72609748D01*
X87218973Y-72677115D01*
X87337900Y-72700771D01*
X89192100Y-72700771D01*
X89311027Y-72677115D01*
X89411848Y-72609748D01*
X89479215Y-72508927D01*
X89502871Y-72390000D01*
X89502871Y-72263898D01*
X89826152Y-72657274D01*
X90357730Y-72940947D01*
X90415269Y-72949357D01*
X90652600Y-72838785D01*
X90652600Y-71272400D01*
X90632600Y-71272400D01*
X90632600Y-70967600D01*
X90652600Y-70967600D01*
X90652600Y-69401215D01*
X90957400Y-69401215D01*
X90957400Y-70967600D01*
X90977400Y-70967600D01*
X90977400Y-71272400D01*
X90957400Y-71272400D01*
X90957400Y-72838785D01*
X91194731Y-72949357D01*
X91252270Y-72940947D01*
X91783848Y-72657274D01*
X92166405Y-72191769D01*
X92226414Y-71994425D01*
X92473915Y-72364837D01*
X92873572Y-72631879D01*
X93345000Y-72725652D01*
X93816428Y-72631879D01*
X94216085Y-72364837D01*
X94483127Y-71965180D01*
X94576900Y-71493752D01*
X94576900Y-70746248D01*
X94653100Y-70746248D01*
X94653100Y-71493752D01*
X94746873Y-71965180D01*
X95013915Y-72364837D01*
X95413572Y-72631879D01*
X95885000Y-72725652D01*
X96356428Y-72631879D01*
X96756085Y-72364837D01*
X97023127Y-71965180D01*
X97116900Y-71493752D01*
X97116900Y-70746248D01*
X97193100Y-70746248D01*
X97193100Y-71493752D01*
X97286873Y-71965180D01*
X97553915Y-72364837D01*
X97953572Y-72631879D01*
X98425000Y-72725652D01*
X98896428Y-72631879D01*
X99296085Y-72364837D01*
X99563127Y-71965180D01*
X99656900Y-71493752D01*
X99656900Y-70746248D01*
X99733100Y-70746248D01*
X99733100Y-71493752D01*
X99826873Y-71965180D01*
X100093915Y-72364837D01*
X100493572Y-72631879D01*
X100965000Y-72725652D01*
X101436428Y-72631879D01*
X101836085Y-72364837D01*
X102103127Y-71965180D01*
X102196900Y-71493752D01*
X102196900Y-70746248D01*
X102273100Y-70746248D01*
X102273100Y-71493752D01*
X102366873Y-71965180D01*
X102633915Y-72364837D01*
X103033572Y-72631879D01*
X103505000Y-72725652D01*
X103976428Y-72631879D01*
X104376085Y-72364837D01*
X104643127Y-71965180D01*
X104736900Y-71493752D01*
X104736900Y-70746248D01*
X104813100Y-70746248D01*
X104813100Y-71493752D01*
X104906873Y-71965180D01*
X105173915Y-72364837D01*
X105573572Y-72631879D01*
X106045000Y-72725652D01*
X106516428Y-72631879D01*
X106916085Y-72364837D01*
X107183127Y-71965180D01*
X107276900Y-71493752D01*
X107276900Y-70746248D01*
X107353100Y-70746248D01*
X107353100Y-71493752D01*
X107446873Y-71965180D01*
X107713915Y-72364837D01*
X108113572Y-72631879D01*
X108585000Y-72725652D01*
X109056428Y-72631879D01*
X109456085Y-72364837D01*
X109723127Y-71965180D01*
X109816900Y-71493752D01*
X109816900Y-70746248D01*
X109893100Y-70746248D01*
X109893100Y-71493752D01*
X109986873Y-71965180D01*
X110253915Y-72364837D01*
X110653572Y-72631879D01*
X111125000Y-72725652D01*
X111596428Y-72631879D01*
X111996085Y-72364837D01*
X112263127Y-71965180D01*
X112356900Y-71493752D01*
X112356900Y-70746248D01*
X112433100Y-70746248D01*
X112433100Y-71493752D01*
X112526873Y-71965180D01*
X112793915Y-72364837D01*
X113193572Y-72631879D01*
X113665000Y-72725652D01*
X114136428Y-72631879D01*
X114536085Y-72364837D01*
X114803127Y-71965180D01*
X114896900Y-71493752D01*
X114896900Y-70746248D01*
X114973100Y-70746248D01*
X114973100Y-71493752D01*
X115066873Y-71965180D01*
X115333915Y-72364837D01*
X115733572Y-72631879D01*
X116205000Y-72725652D01*
X116676428Y-72631879D01*
X117076085Y-72364837D01*
X117343127Y-71965180D01*
X117436900Y-71493752D01*
X117436900Y-70746248D01*
X117513100Y-70746248D01*
X117513100Y-71493752D01*
X117606873Y-71965180D01*
X117873915Y-72364837D01*
X118273572Y-72631879D01*
X118745000Y-72725652D01*
X119216428Y-72631879D01*
X119616085Y-72364837D01*
X119883127Y-71965180D01*
X119976900Y-71493752D01*
X119976900Y-70746248D01*
X120053100Y-70746248D01*
X120053100Y-71493752D01*
X120146873Y-71965180D01*
X120413915Y-72364837D01*
X120813572Y-72631879D01*
X121285000Y-72725652D01*
X121756428Y-72631879D01*
X122156085Y-72364837D01*
X122423127Y-71965180D01*
X122516900Y-71493752D01*
X122516900Y-70746248D01*
X122593100Y-70746248D01*
X122593100Y-71493752D01*
X122686873Y-71965180D01*
X122953915Y-72364837D01*
X123353572Y-72631879D01*
X123825000Y-72725652D01*
X124296428Y-72631879D01*
X124696085Y-72364837D01*
X124963127Y-71965180D01*
X125056900Y-71493752D01*
X125056900Y-70746248D01*
X125133100Y-70746248D01*
X125133100Y-71493752D01*
X125226873Y-71965180D01*
X125493915Y-72364837D01*
X125893572Y-72631879D01*
X126365000Y-72725652D01*
X126836428Y-72631879D01*
X127236085Y-72364837D01*
X127503127Y-71965180D01*
X127589197Y-71532477D01*
X128091840Y-71532477D01*
X128408259Y-72298270D01*
X128993648Y-72884682D01*
X129758888Y-73202437D01*
X130587477Y-73203160D01*
X131353270Y-72886741D01*
X131939682Y-72301352D01*
X132257437Y-71536112D01*
X132258160Y-70707523D01*
X131941741Y-69941730D01*
X131356352Y-69355318D01*
X130591112Y-69037563D01*
X129762523Y-69036840D01*
X128996730Y-69353259D01*
X128410318Y-69938648D01*
X128092563Y-70703888D01*
X128091840Y-71532477D01*
X127589197Y-71532477D01*
X127596900Y-71493752D01*
X127596900Y-70746248D01*
X127503127Y-70274820D01*
X127236085Y-69875163D01*
X126836428Y-69608121D01*
X126365000Y-69514348D01*
X125893572Y-69608121D01*
X125493915Y-69875163D01*
X125226873Y-70274820D01*
X125133100Y-70746248D01*
X125056900Y-70746248D01*
X124963127Y-70274820D01*
X124696085Y-69875163D01*
X124296428Y-69608121D01*
X123825000Y-69514348D01*
X123353572Y-69608121D01*
X122953915Y-69875163D01*
X122686873Y-70274820D01*
X122593100Y-70746248D01*
X122516900Y-70746248D01*
X122423127Y-70274820D01*
X122156085Y-69875163D01*
X121756428Y-69608121D01*
X121285000Y-69514348D01*
X120813572Y-69608121D01*
X120413915Y-69875163D01*
X120146873Y-70274820D01*
X120053100Y-70746248D01*
X119976900Y-70746248D01*
X119883127Y-70274820D01*
X119616085Y-69875163D01*
X119216428Y-69608121D01*
X118745000Y-69514348D01*
X118273572Y-69608121D01*
X117873915Y-69875163D01*
X117606873Y-70274820D01*
X117513100Y-70746248D01*
X117436900Y-70746248D01*
X117343127Y-70274820D01*
X117076085Y-69875163D01*
X116676428Y-69608121D01*
X116205000Y-69514348D01*
X115733572Y-69608121D01*
X115333915Y-69875163D01*
X115066873Y-70274820D01*
X114973100Y-70746248D01*
X114896900Y-70746248D01*
X114803127Y-70274820D01*
X114536085Y-69875163D01*
X114136428Y-69608121D01*
X113665000Y-69514348D01*
X113193572Y-69608121D01*
X112793915Y-69875163D01*
X112526873Y-70274820D01*
X112433100Y-70746248D01*
X112356900Y-70746248D01*
X112263127Y-70274820D01*
X111996085Y-69875163D01*
X111596428Y-69608121D01*
X111125000Y-69514348D01*
X110653572Y-69608121D01*
X110253915Y-69875163D01*
X109986873Y-70274820D01*
X109893100Y-70746248D01*
X109816900Y-70746248D01*
X109723127Y-70274820D01*
X109456085Y-69875163D01*
X109056428Y-69608121D01*
X108585000Y-69514348D01*
X108113572Y-69608121D01*
X107713915Y-69875163D01*
X107446873Y-70274820D01*
X107353100Y-70746248D01*
X107276900Y-70746248D01*
X107183127Y-70274820D01*
X106916085Y-69875163D01*
X106516428Y-69608121D01*
X106045000Y-69514348D01*
X105573572Y-69608121D01*
X105173915Y-69875163D01*
X104906873Y-70274820D01*
X104813100Y-70746248D01*
X104736900Y-70746248D01*
X104643127Y-70274820D01*
X104376085Y-69875163D01*
X103976428Y-69608121D01*
X103505000Y-69514348D01*
X103033572Y-69608121D01*
X102633915Y-69875163D01*
X102366873Y-70274820D01*
X102273100Y-70746248D01*
X102196900Y-70746248D01*
X102103127Y-70274820D01*
X101836085Y-69875163D01*
X101436428Y-69608121D01*
X100965000Y-69514348D01*
X100493572Y-69608121D01*
X100093915Y-69875163D01*
X99826873Y-70274820D01*
X99733100Y-70746248D01*
X99656900Y-70746248D01*
X99563127Y-70274820D01*
X99296085Y-69875163D01*
X98896428Y-69608121D01*
X98425000Y-69514348D01*
X97953572Y-69608121D01*
X97553915Y-69875163D01*
X97286873Y-70274820D01*
X97193100Y-70746248D01*
X97116900Y-70746248D01*
X97023127Y-70274820D01*
X96756085Y-69875163D01*
X96356428Y-69608121D01*
X95885000Y-69514348D01*
X95413572Y-69608121D01*
X95013915Y-69875163D01*
X94746873Y-70274820D01*
X94653100Y-70746248D01*
X94576900Y-70746248D01*
X94483127Y-70274820D01*
X94216085Y-69875163D01*
X93816428Y-69608121D01*
X93345000Y-69514348D01*
X92873572Y-69608121D01*
X92473915Y-69875163D01*
X92226414Y-70245575D01*
X92166405Y-70048231D01*
X91783848Y-69582726D01*
X91252270Y-69299053D01*
X91194731Y-69290643D01*
X90957400Y-69401215D01*
X90652600Y-69401215D01*
X90415269Y-69290643D01*
X90357730Y-69299053D01*
X89826152Y-69582726D01*
X89502871Y-69976102D01*
X89502871Y-69850000D01*
X89479215Y-69731073D01*
X89411848Y-69630252D01*
X89311027Y-69562885D01*
X89192100Y-69539229D01*
X87337900Y-69539229D01*
X87218973Y-69562885D01*
X87118152Y-69630252D01*
X87050785Y-69731073D01*
X87027129Y-69850000D01*
X86144100Y-69850000D01*
X86144100Y-68364100D01*
X155790900Y-68364100D01*
X155790900Y-109435900D01*
X155790900Y-109435900D01*
G37*
X155790900Y-109435900D02*
X86144100Y-109435900D01*
X86144100Y-106306248D01*
X87033100Y-106306248D01*
X87033100Y-107053752D01*
X87126873Y-107525180D01*
X87393915Y-107924837D01*
X87793572Y-108191879D01*
X88265000Y-108285652D01*
X88736428Y-108191879D01*
X89136085Y-107924837D01*
X89403127Y-107525180D01*
X89496900Y-107053752D01*
X89496900Y-106306248D01*
X89573100Y-106306248D01*
X89573100Y-107053752D01*
X89666873Y-107525180D01*
X89933915Y-107924837D01*
X90333572Y-108191879D01*
X90805000Y-108285652D01*
X91276428Y-108191879D01*
X91676085Y-107924837D01*
X91943127Y-107525180D01*
X92036900Y-107053752D01*
X92036900Y-106306248D01*
X92113100Y-106306248D01*
X92113100Y-107053752D01*
X92206873Y-107525180D01*
X92473915Y-107924837D01*
X92873572Y-108191879D01*
X93345000Y-108285652D01*
X93816428Y-108191879D01*
X94216085Y-107924837D01*
X94483127Y-107525180D01*
X94576900Y-107053752D01*
X94576900Y-106306248D01*
X94576703Y-106305253D01*
X94602300Y-106305253D01*
X94602300Y-107054747D01*
X94699940Y-107545615D01*
X94977994Y-107961753D01*
X95394132Y-108239807D01*
X95885000Y-108337447D01*
X96375868Y-108239807D01*
X96792006Y-107961753D01*
X97070060Y-107545615D01*
X97167700Y-107054747D01*
X97167700Y-106306248D01*
X97193100Y-106306248D01*
X97193100Y-107053752D01*
X97286873Y-107525180D01*
X97553915Y-107924837D01*
X97953572Y-108191879D01*
X98425000Y-108285652D01*
X98896428Y-108191879D01*
X99296085Y-107924837D01*
X99563127Y-107525180D01*
X99656900Y-107053752D01*
X99656900Y-106306248D01*
X99733100Y-106306248D01*
X99733100Y-107053752D01*
X99826873Y-107525180D01*
X100093915Y-107924837D01*
X100493572Y-108191879D01*
X100965000Y-108285652D01*
X101436428Y-108191879D01*
X101836085Y-107924837D01*
X102103127Y-107525180D01*
X102196900Y-107053752D01*
X102196900Y-106306248D01*
X102273100Y-106306248D01*
X102273100Y-107053752D01*
X102366873Y-107525180D01*
X102633915Y-107924837D01*
X103033572Y-108191879D01*
X103505000Y-108285652D01*
X103976428Y-108191879D01*
X104376085Y-107924837D01*
X104643127Y-107525180D01*
X104736900Y-107053752D01*
X104736900Y-106306248D01*
X104813100Y-106306248D01*
X104813100Y-107053752D01*
X104906873Y-107525180D01*
X105173915Y-107924837D01*
X105573572Y-108191879D01*
X106045000Y-108285652D01*
X106516428Y-108191879D01*
X106916085Y-107924837D01*
X107183127Y-107525180D01*
X107276900Y-107053752D01*
X107276900Y-106306248D01*
X107353100Y-106306248D01*
X107353100Y-107053752D01*
X107446873Y-107525180D01*
X107713915Y-107924837D01*
X108113572Y-108191879D01*
X108585000Y-108285652D01*
X109056428Y-108191879D01*
X109456085Y-107924837D01*
X109723127Y-107525180D01*
X109816900Y-107053752D01*
X109816900Y-106306248D01*
X109893100Y-106306248D01*
X109893100Y-107053752D01*
X109986873Y-107525180D01*
X110253915Y-107924837D01*
X110653572Y-108191879D01*
X111125000Y-108285652D01*
X111596428Y-108191879D01*
X111996085Y-107924837D01*
X112263127Y-107525180D01*
X112356900Y-107053752D01*
X112356900Y-106306248D01*
X112433100Y-106306248D01*
X112433100Y-107053752D01*
X112526873Y-107525180D01*
X112793915Y-107924837D01*
X113193572Y-108191879D01*
X113665000Y-108285652D01*
X114136428Y-108191879D01*
X114536085Y-107924837D01*
X114803127Y-107525180D01*
X114896900Y-107053752D01*
X114896900Y-106306248D01*
X114973100Y-106306248D01*
X114973100Y-107053752D01*
X115066873Y-107525180D01*
X115333915Y-107924837D01*
X115733572Y-108191879D01*
X116205000Y-108285652D01*
X116676428Y-108191879D01*
X117076085Y-107924837D01*
X117343127Y-107525180D01*
X117436900Y-107053752D01*
X117436900Y-106306248D01*
X117513100Y-106306248D01*
X117513100Y-107053752D01*
X117606873Y-107525180D01*
X117873915Y-107924837D01*
X118273572Y-108191879D01*
X118745000Y-108285652D01*
X119216428Y-108191879D01*
X119616085Y-107924837D01*
X119883127Y-107525180D01*
X119976900Y-107053752D01*
X119976900Y-106306248D01*
X120053100Y-106306248D01*
X120053100Y-107053752D01*
X120146873Y-107525180D01*
X120413915Y-107924837D01*
X120813572Y-108191879D01*
X121285000Y-108285652D01*
X121756428Y-108191879D01*
X122156085Y-107924837D01*
X122423127Y-107525180D01*
X122516900Y-107053752D01*
X122516900Y-106306248D01*
X122593100Y-106306248D01*
X122593100Y-107053752D01*
X122686873Y-107525180D01*
X122953915Y-107924837D01*
X123353572Y-108191879D01*
X123825000Y-108285652D01*
X124296428Y-108191879D01*
X124696085Y-107924837D01*
X124963127Y-107525180D01*
X125056900Y-107053752D01*
X125056900Y-106306248D01*
X125133100Y-106306248D01*
X125133100Y-107053752D01*
X125226873Y-107525180D01*
X125493915Y-107924837D01*
X125893572Y-108191879D01*
X126365000Y-108285652D01*
X126836428Y-108191879D01*
X127236085Y-107924837D01*
X127503127Y-107525180D01*
X127589197Y-107092477D01*
X128091840Y-107092477D01*
X128408259Y-107858270D01*
X128993648Y-108444682D01*
X129758888Y-108762437D01*
X130587477Y-108763160D01*
X131353270Y-108446741D01*
X131939682Y-107861352D01*
X132257437Y-107096112D01*
X132258160Y-106267523D01*
X131941741Y-105501730D01*
X131356352Y-104915318D01*
X130591112Y-104597563D01*
X129762523Y-104596840D01*
X128996730Y-104913259D01*
X128410318Y-105498648D01*
X128092563Y-106263888D01*
X128091840Y-107092477D01*
X127589197Y-107092477D01*
X127596900Y-107053752D01*
X127596900Y-106306248D01*
X127503127Y-105834820D01*
X127236085Y-105435163D01*
X126836428Y-105168121D01*
X126365000Y-105074348D01*
X125893572Y-105168121D01*
X125493915Y-105435163D01*
X125226873Y-105834820D01*
X125133100Y-106306248D01*
X125056900Y-106306248D01*
X124963127Y-105834820D01*
X124696085Y-105435163D01*
X124296428Y-105168121D01*
X123825000Y-105074348D01*
X123353572Y-105168121D01*
X122953915Y-105435163D01*
X122686873Y-105834820D01*
X122593100Y-106306248D01*
X122516900Y-106306248D01*
X122423127Y-105834820D01*
X122156085Y-105435163D01*
X121756428Y-105168121D01*
X121285000Y-105074348D01*
X120813572Y-105168121D01*
X120413915Y-105435163D01*
X120146873Y-105834820D01*
X120053100Y-106306248D01*
X119976900Y-106306248D01*
X119883127Y-105834820D01*
X119616085Y-105435163D01*
X119216428Y-105168121D01*
X118745000Y-105074348D01*
X118273572Y-105168121D01*
X117873915Y-105435163D01*
X117606873Y-105834820D01*
X117513100Y-106306248D01*
X117436900Y-106306248D01*
X117343127Y-105834820D01*
X117076085Y-105435163D01*
X116676428Y-105168121D01*
X116205000Y-105074348D01*
X115733572Y-105168121D01*
X115333915Y-105435163D01*
X115066873Y-105834820D01*
X114973100Y-106306248D01*
X114896900Y-106306248D01*
X114803127Y-105834820D01*
X114536085Y-105435163D01*
X114136428Y-105168121D01*
X113665000Y-105074348D01*
X113193572Y-105168121D01*
X112793915Y-105435163D01*
X112526873Y-105834820D01*
X112433100Y-106306248D01*
X112356900Y-106306248D01*
X112263127Y-105834820D01*
X111996085Y-105435163D01*
X111596428Y-105168121D01*
X111125000Y-105074348D01*
X110653572Y-105168121D01*
X110253915Y-105435163D01*
X109986873Y-105834820D01*
X109893100Y-106306248D01*
X109816900Y-106306248D01*
X109723127Y-105834820D01*
X109456085Y-105435163D01*
X109056428Y-105168121D01*
X108585000Y-105074348D01*
X108113572Y-105168121D01*
X107713915Y-105435163D01*
X107446873Y-105834820D01*
X107353100Y-106306248D01*
X107276900Y-106306248D01*
X107183127Y-105834820D01*
X106916085Y-105435163D01*
X106516428Y-105168121D01*
X106045000Y-105074348D01*
X105573572Y-105168121D01*
X105173915Y-105435163D01*
X104906873Y-105834820D01*
X104813100Y-106306248D01*
X104736900Y-106306248D01*
X104643127Y-105834820D01*
X104376085Y-105435163D01*
X103976428Y-105168121D01*
X103505000Y-105074348D01*
X103033572Y-105168121D01*
X102633915Y-105435163D01*
X102366873Y-105834820D01*
X102273100Y-106306248D01*
X102196900Y-106306248D01*
X102103127Y-105834820D01*
X101836085Y-105435163D01*
X101436428Y-105168121D01*
X100965000Y-105074348D01*
X100493572Y-105168121D01*
X100093915Y-105435163D01*
X99826873Y-105834820D01*
X99733100Y-106306248D01*
X99656900Y-106306248D01*
X99563127Y-105834820D01*
X99296085Y-105435163D01*
X98896428Y-105168121D01*
X98425000Y-105074348D01*
X97953572Y-105168121D01*
X97553915Y-105435163D01*
X97286873Y-105834820D01*
X97193100Y-106306248D01*
X97167700Y-106306248D01*
X97167700Y-106305253D01*
X97070060Y-105814385D01*
X96792006Y-105398247D01*
X96647000Y-105301357D01*
X96647000Y-105064930D01*
X101968315Y-99743615D01*
X102133496Y-99496405D01*
X102191500Y-99204800D01*
X102191500Y-97612478D01*
X104595200Y-97612478D01*
X104595200Y-98267522D01*
X104679298Y-98690311D01*
X104918788Y-99048734D01*
X105277211Y-99288224D01*
X105700000Y-99372322D01*
X106122789Y-99288224D01*
X106481212Y-99048734D01*
X106720702Y-98690311D01*
X106804800Y-98267522D01*
X106804800Y-97612478D01*
X107365200Y-97612478D01*
X107365200Y-98267522D01*
X107449298Y-98690311D01*
X107688788Y-99048734D01*
X108047211Y-99288224D01*
X108470000Y-99372322D01*
X108892789Y-99288224D01*
X109251212Y-99048734D01*
X109490702Y-98690311D01*
X109574800Y-98267522D01*
X109574800Y-97612478D01*
X110135200Y-97612478D01*
X110135200Y-98267522D01*
X110219298Y-98690311D01*
X110458788Y-99048734D01*
X110817211Y-99288224D01*
X111240000Y-99372322D01*
X111662789Y-99288224D01*
X112021212Y-99048734D01*
X112260702Y-98690311D01*
X112344800Y-98267522D01*
X112344800Y-97612478D01*
X112905200Y-97612478D01*
X112905200Y-98267522D01*
X112989298Y-98690311D01*
X113228788Y-99048734D01*
X113587211Y-99288224D01*
X114010000Y-99372322D01*
X114432789Y-99288224D01*
X114791212Y-99048734D01*
X115030702Y-98690311D01*
X115114800Y-98267522D01*
X115114800Y-97612478D01*
X115030702Y-97189689D01*
X114791212Y-96831266D01*
X114432789Y-96591776D01*
X114010000Y-96507678D01*
X113587211Y-96591776D01*
X113228788Y-96831266D01*
X112989298Y-97189689D01*
X112905200Y-97612478D01*
X112344800Y-97612478D01*
X112260702Y-97189689D01*
X112021212Y-96831266D01*
X111662789Y-96591776D01*
X111240000Y-96507678D01*
X110817211Y-96591776D01*
X110458788Y-96831266D01*
X110219298Y-97189689D01*
X110135200Y-97612478D01*
X109574800Y-97612478D01*
X109490702Y-97189689D01*
X109251212Y-96831266D01*
X108892789Y-96591776D01*
X108470000Y-96507678D01*
X108047211Y-96591776D01*
X107688788Y-96831266D01*
X107449298Y-97189689D01*
X107365200Y-97612478D01*
X106804800Y-97612478D01*
X106720702Y-97189689D01*
X106481212Y-96831266D01*
X106122789Y-96591776D01*
X105700000Y-96507678D01*
X105277211Y-96591776D01*
X104918788Y-96831266D01*
X104679298Y-97189689D01*
X104595200Y-97612478D01*
X102191500Y-97612478D01*
X102191500Y-95885930D01*
X102905400Y-95172030D01*
X102905400Y-95252402D01*
X103049854Y-95252402D01*
X102891818Y-95475970D01*
X103029224Y-96014815D01*
X103362377Y-96460060D01*
X103840559Y-96743921D01*
X103945259Y-96760244D01*
X104162600Y-96647929D01*
X104162600Y-95252400D01*
X104467400Y-95252400D01*
X104467400Y-96647929D01*
X104684741Y-96760244D01*
X104789441Y-96743921D01*
X105267623Y-96460060D01*
X105600776Y-96014815D01*
X105738182Y-95475970D01*
X105580145Y-95252400D01*
X104467400Y-95252400D01*
X104162600Y-95252400D01*
X104142600Y-95252400D01*
X104142600Y-94947600D01*
X104162600Y-94947600D01*
X104162600Y-94927600D01*
X104467400Y-94927600D01*
X104467400Y-94947600D01*
X105580145Y-94947600D01*
X105703935Y-94772478D01*
X105980200Y-94772478D01*
X105980200Y-95427522D01*
X106064298Y-95850311D01*
X106303788Y-96208734D01*
X106662211Y-96448224D01*
X107085000Y-96532322D01*
X107507789Y-96448224D01*
X107866212Y-96208734D01*
X108105702Y-95850311D01*
X108189800Y-95427522D01*
X108189800Y-94772478D01*
X108750200Y-94772478D01*
X108750200Y-95427522D01*
X108834298Y-95850311D01*
X109073788Y-96208734D01*
X109432211Y-96448224D01*
X109855000Y-96532322D01*
X110277789Y-96448224D01*
X110636212Y-96208734D01*
X110875702Y-95850311D01*
X110959800Y-95427522D01*
X110959800Y-94772478D01*
X111520200Y-94772478D01*
X111520200Y-95427522D01*
X111604298Y-95850311D01*
X111843788Y-96208734D01*
X112202211Y-96448224D01*
X112625000Y-96532322D01*
X113047789Y-96448224D01*
X113406212Y-96208734D01*
X113645702Y-95850311D01*
X113729800Y-95427522D01*
X113729800Y-94772478D01*
X113645702Y-94349689D01*
X113412048Y-94000000D01*
X114284229Y-94000000D01*
X114284229Y-96200000D01*
X114307885Y-96318927D01*
X114375252Y-96419748D01*
X114476073Y-96487115D01*
X114595000Y-96510771D01*
X116195000Y-96510771D01*
X116313927Y-96487115D01*
X116414748Y-96419748D01*
X116482115Y-96318927D01*
X116505771Y-96200000D01*
X116505771Y-95955255D01*
X119542200Y-95955255D01*
X119542200Y-97084745D01*
X119755703Y-98158095D01*
X120363707Y-99068038D01*
X121273650Y-99676042D01*
X122347000Y-99889545D01*
X123420350Y-99676042D01*
X124330293Y-99068038D01*
X124938297Y-98158095D01*
X125151800Y-97084745D01*
X125151800Y-95955255D01*
X124938297Y-94881905D01*
X124330293Y-93971962D01*
X123420350Y-93363958D01*
X122347000Y-93150455D01*
X121273650Y-93363958D01*
X120363707Y-93971962D01*
X119755703Y-94881905D01*
X119542200Y-95955255D01*
X116505771Y-95955255D01*
X116505771Y-94000000D01*
X116482115Y-93881073D01*
X116414748Y-93780252D01*
X116313927Y-93712885D01*
X116195000Y-93689229D01*
X114595000Y-93689229D01*
X114476073Y-93712885D01*
X114375252Y-93780252D01*
X114307885Y-93881073D01*
X114284229Y-94000000D01*
X113412048Y-94000000D01*
X113406212Y-93991266D01*
X113047789Y-93751776D01*
X112625000Y-93667678D01*
X112202211Y-93751776D01*
X111843788Y-93991266D01*
X111604298Y-94349689D01*
X111520200Y-94772478D01*
X110959800Y-94772478D01*
X110875702Y-94349689D01*
X110636212Y-93991266D01*
X110277789Y-93751776D01*
X109855000Y-93667678D01*
X109432211Y-93751776D01*
X109073788Y-93991266D01*
X108834298Y-94349689D01*
X108750200Y-94772478D01*
X108189800Y-94772478D01*
X108105702Y-94349689D01*
X107866212Y-93991266D01*
X107507789Y-93751776D01*
X107085000Y-93667678D01*
X106662211Y-93751776D01*
X106303788Y-93991266D01*
X106064298Y-94349689D01*
X105980200Y-94772478D01*
X105703935Y-94772478D01*
X105738182Y-94724030D01*
X105600776Y-94185185D01*
X105267623Y-93739940D01*
X104789441Y-93456079D01*
X104684741Y-93439756D01*
X104587340Y-93490090D01*
X111886430Y-86191000D01*
X123991532Y-86191000D01*
X124082952Y-86228961D01*
X124401252Y-86229239D01*
X124695428Y-86107687D01*
X124920696Y-85882812D01*
X125042761Y-85588848D01*
X125043039Y-85270548D01*
X124921487Y-84976372D01*
X124696612Y-84751104D01*
X124402648Y-84629039D01*
X124084348Y-84628761D01*
X123991803Y-84667000D01*
X111570800Y-84667000D01*
X111279195Y-84725004D01*
X111031985Y-84890185D01*
X100890685Y-95031485D01*
X100725504Y-95278695D01*
X100667500Y-95570300D01*
X100667500Y-98889170D01*
X95346185Y-104210485D01*
X95181004Y-104457695D01*
X95123000Y-104749300D01*
X95123000Y-105301357D01*
X94977994Y-105398247D01*
X94699940Y-105814385D01*
X94602300Y-106305253D01*
X94576703Y-106305253D01*
X94483127Y-105834820D01*
X94216085Y-105435163D01*
X93816428Y-105168121D01*
X93345000Y-105074348D01*
X92873572Y-105168121D01*
X92473915Y-105435163D01*
X92206873Y-105834820D01*
X92113100Y-106306248D01*
X92036900Y-106306248D01*
X91943127Y-105834820D01*
X91676085Y-105435163D01*
X91276428Y-105168121D01*
X90805000Y-105074348D01*
X90333572Y-105168121D01*
X89933915Y-105435163D01*
X89666873Y-105834820D01*
X89573100Y-106306248D01*
X89496900Y-106306248D01*
X89403127Y-105834820D01*
X89136085Y-105435163D01*
X88736428Y-105168121D01*
X88265000Y-105074348D01*
X87793572Y-105168121D01*
X87393915Y-105435163D01*
X87126873Y-105834820D01*
X87033100Y-106306248D01*
X86144100Y-106306248D01*
X86144100Y-102012477D01*
X87451840Y-102012477D01*
X87768259Y-102778270D01*
X88353648Y-103364682D01*
X89118888Y-103682437D01*
X89947477Y-103683160D01*
X90713270Y-103366741D01*
X91299682Y-102781352D01*
X91617437Y-102016112D01*
X91618160Y-101187523D01*
X91301741Y-100421730D01*
X90716352Y-99835318D01*
X89951112Y-99517563D01*
X89122523Y-99516840D01*
X88356730Y-99833259D01*
X87770318Y-100418648D01*
X87452563Y-101183888D01*
X87451840Y-102012477D01*
X86144100Y-102012477D01*
X86144100Y-95955255D01*
X94555200Y-95955255D01*
X94555200Y-97084745D01*
X94768703Y-98158095D01*
X95376707Y-99068038D01*
X96286650Y-99676042D01*
X97360000Y-99889545D01*
X98433350Y-99676042D01*
X99343293Y-99068038D01*
X99951297Y-98158095D01*
X100164800Y-97084745D01*
X100164800Y-95955255D01*
X99951297Y-94881905D01*
X99343293Y-93971962D01*
X98433350Y-93363958D01*
X97360000Y-93150455D01*
X96286650Y-93363958D01*
X95376707Y-93971962D01*
X94768703Y-94881905D01*
X94555200Y-95955255D01*
X86144100Y-95955255D01*
X86144100Y-80715255D01*
X94555200Y-80715255D01*
X94555200Y-81844745D01*
X94768703Y-82918095D01*
X95376707Y-83828038D01*
X96286650Y-84436042D01*
X97360000Y-84649545D01*
X98433350Y-84436042D01*
X99343293Y-83828038D01*
X99951297Y-82918095D01*
X100059827Y-82372478D01*
X104595200Y-82372478D01*
X104595200Y-83027522D01*
X104679298Y-83450311D01*
X104918788Y-83808734D01*
X105277211Y-84048224D01*
X105700000Y-84132322D01*
X106122789Y-84048224D01*
X106481212Y-83808734D01*
X106720702Y-83450311D01*
X106804800Y-83027522D01*
X106804800Y-82372478D01*
X107365200Y-82372478D01*
X107365200Y-83027522D01*
X107449298Y-83450311D01*
X107688788Y-83808734D01*
X108047211Y-84048224D01*
X108470000Y-84132322D01*
X108892789Y-84048224D01*
X109251212Y-83808734D01*
X109490702Y-83450311D01*
X109574800Y-83027522D01*
X109574800Y-82372478D01*
X110135200Y-82372478D01*
X110135200Y-83027522D01*
X110219298Y-83450311D01*
X110458788Y-83808734D01*
X110817211Y-84048224D01*
X111240000Y-84132322D01*
X111662789Y-84048224D01*
X112021212Y-83808734D01*
X112260702Y-83450311D01*
X112344800Y-83027522D01*
X112344800Y-82372478D01*
X112905200Y-82372478D01*
X112905200Y-83027522D01*
X112989298Y-83450311D01*
X113228788Y-83808734D01*
X113587211Y-84048224D01*
X114010000Y-84132322D01*
X114432789Y-84048224D01*
X114791212Y-83808734D01*
X115030702Y-83450311D01*
X115114800Y-83027522D01*
X115114800Y-82372478D01*
X115030702Y-81949689D01*
X114791212Y-81591266D01*
X114432789Y-81351776D01*
X114010000Y-81267678D01*
X113587211Y-81351776D01*
X113228788Y-81591266D01*
X112989298Y-81949689D01*
X112905200Y-82372478D01*
X112344800Y-82372478D01*
X112260702Y-81949689D01*
X112021212Y-81591266D01*
X111662789Y-81351776D01*
X111240000Y-81267678D01*
X110817211Y-81351776D01*
X110458788Y-81591266D01*
X110219298Y-81949689D01*
X110135200Y-82372478D01*
X109574800Y-82372478D01*
X109490702Y-81949689D01*
X109251212Y-81591266D01*
X108892789Y-81351776D01*
X108470000Y-81267678D01*
X108047211Y-81351776D01*
X107688788Y-81591266D01*
X107449298Y-81949689D01*
X107365200Y-82372478D01*
X106804800Y-82372478D01*
X106720702Y-81949689D01*
X106481212Y-81591266D01*
X106122789Y-81351776D01*
X105700000Y-81267678D01*
X105277211Y-81351776D01*
X104918788Y-81591266D01*
X104679298Y-81949689D01*
X104595200Y-82372478D01*
X100059827Y-82372478D01*
X100164800Y-81844745D01*
X100164800Y-80715255D01*
X99951297Y-79641905D01*
X99362028Y-78760000D01*
X103204229Y-78760000D01*
X103204229Y-80960000D01*
X103227885Y-81078927D01*
X103295252Y-81179748D01*
X103396073Y-81247115D01*
X103515000Y-81270771D01*
X105115000Y-81270771D01*
X105233927Y-81247115D01*
X105334748Y-81179748D01*
X105402115Y-81078927D01*
X105425771Y-80960000D01*
X105425771Y-79532478D01*
X105980200Y-79532478D01*
X105980200Y-80187522D01*
X106064298Y-80610311D01*
X106303788Y-80968734D01*
X106662211Y-81208224D01*
X107085000Y-81292322D01*
X107507789Y-81208224D01*
X107866212Y-80968734D01*
X108105702Y-80610311D01*
X108189800Y-80187522D01*
X108189800Y-79532478D01*
X108750200Y-79532478D01*
X108750200Y-80187522D01*
X108834298Y-80610311D01*
X109073788Y-80968734D01*
X109432211Y-81208224D01*
X109855000Y-81292322D01*
X110277789Y-81208224D01*
X110636212Y-80968734D01*
X110875702Y-80610311D01*
X110959800Y-80187522D01*
X110959800Y-79532478D01*
X111520200Y-79532478D01*
X111520200Y-80187522D01*
X111604298Y-80610311D01*
X111843788Y-80968734D01*
X112202211Y-81208224D01*
X112625000Y-81292322D01*
X113047789Y-81208224D01*
X113406212Y-80968734D01*
X113645702Y-80610311D01*
X113720163Y-80235970D01*
X113971818Y-80235970D01*
X114109224Y-80774815D01*
X114442377Y-81220060D01*
X114920559Y-81503921D01*
X115025259Y-81520244D01*
X115242600Y-81407929D01*
X115242600Y-80012400D01*
X115547400Y-80012400D01*
X115547400Y-81407929D01*
X115764741Y-81520244D01*
X115869441Y-81503921D01*
X116347623Y-81220060D01*
X116680776Y-80774815D01*
X116695963Y-80715255D01*
X119542200Y-80715255D01*
X119542200Y-81844745D01*
X119755703Y-82918095D01*
X120363707Y-83828038D01*
X121273650Y-84436042D01*
X122347000Y-84649545D01*
X123420350Y-84436042D01*
X124330293Y-83828038D01*
X124938297Y-82918095D01*
X125151800Y-81844745D01*
X125151800Y-80715255D01*
X124938297Y-79641905D01*
X124330293Y-78731962D01*
X123420350Y-78123958D01*
X122347000Y-77910455D01*
X121273650Y-78123958D01*
X120363707Y-78731962D01*
X119755703Y-79641905D01*
X119542200Y-80715255D01*
X116695963Y-80715255D01*
X116818182Y-80235970D01*
X116660145Y-80012400D01*
X115547400Y-80012400D01*
X115242600Y-80012400D01*
X114129855Y-80012400D01*
X113971818Y-80235970D01*
X113720163Y-80235970D01*
X113729800Y-80187522D01*
X113729800Y-79532478D01*
X113720164Y-79484030D01*
X113971818Y-79484030D01*
X114129855Y-79707600D01*
X115242600Y-79707600D01*
X115242600Y-78312071D01*
X115547400Y-78312071D01*
X115547400Y-79707600D01*
X116660145Y-79707600D01*
X116818182Y-79484030D01*
X116680776Y-78945185D01*
X116347623Y-78499940D01*
X115869441Y-78216079D01*
X115764741Y-78199756D01*
X115547400Y-78312071D01*
X115242600Y-78312071D01*
X115025259Y-78199756D01*
X114920559Y-78216079D01*
X114442377Y-78499940D01*
X114109224Y-78945185D01*
X113971818Y-79484030D01*
X113720164Y-79484030D01*
X113645702Y-79109689D01*
X113406212Y-78751266D01*
X113047789Y-78511776D01*
X112625000Y-78427678D01*
X112202211Y-78511776D01*
X111843788Y-78751266D01*
X111604298Y-79109689D01*
X111520200Y-79532478D01*
X110959800Y-79532478D01*
X110875702Y-79109689D01*
X110636212Y-78751266D01*
X110277789Y-78511776D01*
X109855000Y-78427678D01*
X109432211Y-78511776D01*
X109073788Y-78751266D01*
X108834298Y-79109689D01*
X108750200Y-79532478D01*
X108189800Y-79532478D01*
X108105702Y-79109689D01*
X107866212Y-78751266D01*
X107507789Y-78511776D01*
X107085000Y-78427678D01*
X106662211Y-78511776D01*
X106303788Y-78751266D01*
X106064298Y-79109689D01*
X105980200Y-79532478D01*
X105425771Y-79532478D01*
X105425771Y-78760000D01*
X105402115Y-78641073D01*
X105334748Y-78540252D01*
X105233927Y-78472885D01*
X105115000Y-78449229D01*
X103515000Y-78449229D01*
X103396073Y-78472885D01*
X103295252Y-78540252D01*
X103227885Y-78641073D01*
X103204229Y-78760000D01*
X99362028Y-78760000D01*
X99343293Y-78731962D01*
X98433350Y-78123958D01*
X97360000Y-77910455D01*
X96286650Y-78123958D01*
X95376707Y-78731962D01*
X94768703Y-79641905D01*
X94555200Y-80715255D01*
X86144100Y-80715255D01*
X86144100Y-76612477D01*
X87451840Y-76612477D01*
X87768259Y-77378270D01*
X88353648Y-77964682D01*
X89118888Y-78282437D01*
X89947477Y-78283160D01*
X90713270Y-77966741D01*
X91299682Y-77381352D01*
X91617437Y-76616112D01*
X91618160Y-75787523D01*
X91301741Y-75021730D01*
X90716352Y-74435318D01*
X89951112Y-74117563D01*
X89122523Y-74116840D01*
X88356730Y-74433259D01*
X87770318Y-75018648D01*
X87452563Y-75783888D01*
X87451840Y-76612477D01*
X86144100Y-76612477D01*
X86144100Y-69850000D01*
X87027129Y-69850000D01*
X87027129Y-72390000D01*
X87050785Y-72508927D01*
X87118152Y-72609748D01*
X87218973Y-72677115D01*
X87337900Y-72700771D01*
X89192100Y-72700771D01*
X89311027Y-72677115D01*
X89411848Y-72609748D01*
X89479215Y-72508927D01*
X89502871Y-72390000D01*
X89502871Y-72263898D01*
X89826152Y-72657274D01*
X90357730Y-72940947D01*
X90415269Y-72949357D01*
X90652600Y-72838785D01*
X90652600Y-71272400D01*
X90632600Y-71272400D01*
X90632600Y-70967600D01*
X90652600Y-70967600D01*
X90652600Y-69401215D01*
X90957400Y-69401215D01*
X90957400Y-70967600D01*
X90977400Y-70967600D01*
X90977400Y-71272400D01*
X90957400Y-71272400D01*
X90957400Y-72838785D01*
X91194731Y-72949357D01*
X91252270Y-72940947D01*
X91783848Y-72657274D01*
X92166405Y-72191769D01*
X92226414Y-71994425D01*
X92473915Y-72364837D01*
X92873572Y-72631879D01*
X93345000Y-72725652D01*
X93816428Y-72631879D01*
X94216085Y-72364837D01*
X94483127Y-71965180D01*
X94576900Y-71493752D01*
X94576900Y-70746248D01*
X94653100Y-70746248D01*
X94653100Y-71493752D01*
X94746873Y-71965180D01*
X95013915Y-72364837D01*
X95413572Y-72631879D01*
X95885000Y-72725652D01*
X96356428Y-72631879D01*
X96756085Y-72364837D01*
X97023127Y-71965180D01*
X97116900Y-71493752D01*
X97116900Y-70746248D01*
X97193100Y-70746248D01*
X97193100Y-71493752D01*
X97286873Y-71965180D01*
X97553915Y-72364837D01*
X97953572Y-72631879D01*
X98425000Y-72725652D01*
X98896428Y-72631879D01*
X99296085Y-72364837D01*
X99563127Y-71965180D01*
X99656900Y-71493752D01*
X99656900Y-70746248D01*
X99733100Y-70746248D01*
X99733100Y-71493752D01*
X99826873Y-71965180D01*
X100093915Y-72364837D01*
X100493572Y-72631879D01*
X100965000Y-72725652D01*
X101436428Y-72631879D01*
X101836085Y-72364837D01*
X102103127Y-71965180D01*
X102196900Y-71493752D01*
X102196900Y-70746248D01*
X102273100Y-70746248D01*
X102273100Y-71493752D01*
X102366873Y-71965180D01*
X102633915Y-72364837D01*
X103033572Y-72631879D01*
X103505000Y-72725652D01*
X103976428Y-72631879D01*
X104376085Y-72364837D01*
X104643127Y-71965180D01*
X104736900Y-71493752D01*
X104736900Y-70746248D01*
X104813100Y-70746248D01*
X104813100Y-71493752D01*
X104906873Y-71965180D01*
X105173915Y-72364837D01*
X105573572Y-72631879D01*
X106045000Y-72725652D01*
X106516428Y-72631879D01*
X106916085Y-72364837D01*
X107183127Y-71965180D01*
X107276900Y-71493752D01*
X107276900Y-70746248D01*
X107353100Y-70746248D01*
X107353100Y-71493752D01*
X107446873Y-71965180D01*
X107713915Y-72364837D01*
X108113572Y-72631879D01*
X108585000Y-72725652D01*
X109056428Y-72631879D01*
X109456085Y-72364837D01*
X109723127Y-71965180D01*
X109816900Y-71493752D01*
X109816900Y-70746248D01*
X109893100Y-70746248D01*
X109893100Y-71493752D01*
X109986873Y-71965180D01*
X110253915Y-72364837D01*
X110653572Y-72631879D01*
X111125000Y-72725652D01*
X111596428Y-72631879D01*
X111996085Y-72364837D01*
X112263127Y-71965180D01*
X112356900Y-71493752D01*
X112356900Y-70746248D01*
X112433100Y-70746248D01*
X112433100Y-71493752D01*
X112526873Y-71965180D01*
X112793915Y-72364837D01*
X113193572Y-72631879D01*
X113665000Y-72725652D01*
X114136428Y-72631879D01*
X114536085Y-72364837D01*
X114803127Y-71965180D01*
X114896900Y-71493752D01*
X114896900Y-70746248D01*
X114973100Y-70746248D01*
X114973100Y-71493752D01*
X115066873Y-71965180D01*
X115333915Y-72364837D01*
X115733572Y-72631879D01*
X116205000Y-72725652D01*
X116676428Y-72631879D01*
X117076085Y-72364837D01*
X117343127Y-71965180D01*
X117436900Y-71493752D01*
X117436900Y-70746248D01*
X117513100Y-70746248D01*
X117513100Y-71493752D01*
X117606873Y-71965180D01*
X117873915Y-72364837D01*
X118273572Y-72631879D01*
X118745000Y-72725652D01*
X119216428Y-72631879D01*
X119616085Y-72364837D01*
X119883127Y-71965180D01*
X119976900Y-71493752D01*
X119976900Y-70746248D01*
X120053100Y-70746248D01*
X120053100Y-71493752D01*
X120146873Y-71965180D01*
X120413915Y-72364837D01*
X120813572Y-72631879D01*
X121285000Y-72725652D01*
X121756428Y-72631879D01*
X122156085Y-72364837D01*
X122423127Y-71965180D01*
X122516900Y-71493752D01*
X122516900Y-70746248D01*
X122593100Y-70746248D01*
X122593100Y-71493752D01*
X122686873Y-71965180D01*
X122953915Y-72364837D01*
X123353572Y-72631879D01*
X123825000Y-72725652D01*
X124296428Y-72631879D01*
X124696085Y-72364837D01*
X124963127Y-71965180D01*
X125056900Y-71493752D01*
X125056900Y-70746248D01*
X125133100Y-70746248D01*
X125133100Y-71493752D01*
X125226873Y-71965180D01*
X125493915Y-72364837D01*
X125893572Y-72631879D01*
X126365000Y-72725652D01*
X126836428Y-72631879D01*
X127236085Y-72364837D01*
X127503127Y-71965180D01*
X127589197Y-71532477D01*
X128091840Y-71532477D01*
X128408259Y-72298270D01*
X128993648Y-72884682D01*
X129758888Y-73202437D01*
X130587477Y-73203160D01*
X131353270Y-72886741D01*
X131939682Y-72301352D01*
X132257437Y-71536112D01*
X132258160Y-70707523D01*
X131941741Y-69941730D01*
X131356352Y-69355318D01*
X130591112Y-69037563D01*
X129762523Y-69036840D01*
X128996730Y-69353259D01*
X128410318Y-69938648D01*
X128092563Y-70703888D01*
X128091840Y-71532477D01*
X127589197Y-71532477D01*
X127596900Y-71493752D01*
X127596900Y-70746248D01*
X127503127Y-70274820D01*
X127236085Y-69875163D01*
X126836428Y-69608121D01*
X126365000Y-69514348D01*
X125893572Y-69608121D01*
X125493915Y-69875163D01*
X125226873Y-70274820D01*
X125133100Y-70746248D01*
X125056900Y-70746248D01*
X124963127Y-70274820D01*
X124696085Y-69875163D01*
X124296428Y-69608121D01*
X123825000Y-69514348D01*
X123353572Y-69608121D01*
X122953915Y-69875163D01*
X122686873Y-70274820D01*
X122593100Y-70746248D01*
X122516900Y-70746248D01*
X122423127Y-70274820D01*
X122156085Y-69875163D01*
X121756428Y-69608121D01*
X121285000Y-69514348D01*
X120813572Y-69608121D01*
X120413915Y-69875163D01*
X120146873Y-70274820D01*
X120053100Y-70746248D01*
X119976900Y-70746248D01*
X119883127Y-70274820D01*
X119616085Y-69875163D01*
X119216428Y-69608121D01*
X118745000Y-69514348D01*
X118273572Y-69608121D01*
X117873915Y-69875163D01*
X117606873Y-70274820D01*
X117513100Y-70746248D01*
X117436900Y-70746248D01*
X117343127Y-70274820D01*
X117076085Y-69875163D01*
X116676428Y-69608121D01*
X116205000Y-69514348D01*
X115733572Y-69608121D01*
X115333915Y-69875163D01*
X115066873Y-70274820D01*
X114973100Y-70746248D01*
X114896900Y-70746248D01*
X114803127Y-70274820D01*
X114536085Y-69875163D01*
X114136428Y-69608121D01*
X113665000Y-69514348D01*
X113193572Y-69608121D01*
X112793915Y-69875163D01*
X112526873Y-70274820D01*
X112433100Y-70746248D01*
X112356900Y-70746248D01*
X112263127Y-70274820D01*
X111996085Y-69875163D01*
X111596428Y-69608121D01*
X111125000Y-69514348D01*
X110653572Y-69608121D01*
X110253915Y-69875163D01*
X109986873Y-70274820D01*
X109893100Y-70746248D01*
X109816900Y-70746248D01*
X109723127Y-70274820D01*
X109456085Y-69875163D01*
X109056428Y-69608121D01*
X108585000Y-69514348D01*
X108113572Y-69608121D01*
X107713915Y-69875163D01*
X107446873Y-70274820D01*
X107353100Y-70746248D01*
X107276900Y-70746248D01*
X107183127Y-70274820D01*
X106916085Y-69875163D01*
X106516428Y-69608121D01*
X106045000Y-69514348D01*
X105573572Y-69608121D01*
X105173915Y-69875163D01*
X104906873Y-70274820D01*
X104813100Y-70746248D01*
X104736900Y-70746248D01*
X104643127Y-70274820D01*
X104376085Y-69875163D01*
X103976428Y-69608121D01*
X103505000Y-69514348D01*
X103033572Y-69608121D01*
X102633915Y-69875163D01*
X102366873Y-70274820D01*
X102273100Y-70746248D01*
X102196900Y-70746248D01*
X102103127Y-70274820D01*
X101836085Y-69875163D01*
X101436428Y-69608121D01*
X100965000Y-69514348D01*
X100493572Y-69608121D01*
X100093915Y-69875163D01*
X99826873Y-70274820D01*
X99733100Y-70746248D01*
X99656900Y-70746248D01*
X99563127Y-70274820D01*
X99296085Y-69875163D01*
X98896428Y-69608121D01*
X98425000Y-69514348D01*
X97953572Y-69608121D01*
X97553915Y-69875163D01*
X97286873Y-70274820D01*
X97193100Y-70746248D01*
X97116900Y-70746248D01*
X97023127Y-70274820D01*
X96756085Y-69875163D01*
X96356428Y-69608121D01*
X95885000Y-69514348D01*
X95413572Y-69608121D01*
X95013915Y-69875163D01*
X94746873Y-70274820D01*
X94653100Y-70746248D01*
X94576900Y-70746248D01*
X94483127Y-70274820D01*
X94216085Y-69875163D01*
X93816428Y-69608121D01*
X93345000Y-69514348D01*
X92873572Y-69608121D01*
X92473915Y-69875163D01*
X92226414Y-70245575D01*
X92166405Y-70048231D01*
X91783848Y-69582726D01*
X91252270Y-69299053D01*
X91194731Y-69290643D01*
X90957400Y-69401215D01*
X90652600Y-69401215D01*
X90415269Y-69290643D01*
X90357730Y-69299053D01*
X89826152Y-69582726D01*
X89502871Y-69976102D01*
X89502871Y-69850000D01*
X89479215Y-69731073D01*
X89411848Y-69630252D01*
X89311027Y-69562885D01*
X89192100Y-69539229D01*
X87337900Y-69539229D01*
X87218973Y-69562885D01*
X87118152Y-69630252D01*
X87050785Y-69731073D01*
X87027129Y-69850000D01*
X86144100Y-69850000D01*
X86144100Y-68364100D01*
X155790900Y-68364100D01*
X155790900Y-109435900D01*
%TD*%
M02*
