M48
;DRILL file {KiCad no-vcs-found-66b654f~60~ubuntu16.04.1} date Mon Sep 18 15:45:42 2017
;FORMAT={-:-/ absolute / inch / decimal}
FMAT,2
INCH,TZ
T1C0.025
T2C0.041
T3C0.043
T4C0.122
T5C0.130
%
G90
G05
M72
T1
X4.8914Y-3.3633
T2
X4.1069Y-3.7441
X4.1614Y-3.8559
X4.2159Y-3.7441
X4.2705Y-3.8559
X4.325Y-3.7441
X4.3795Y-3.8559
X4.4341Y-3.7441
X4.4886Y-3.8559
X4.5431Y-3.7441
X4.1069Y-3.1441
X4.1614Y-3.2559
X4.2159Y-3.1441
X4.2705Y-3.2559
X4.325Y-3.1441
X4.3795Y-3.2559
X4.4341Y-3.1441
X4.4886Y-3.2559
X4.5431Y-3.1441
T3
X3.475Y-2.8
X3.475Y-4.2
X3.575Y-2.8
X3.575Y-4.2
X3.675Y-2.8
X3.675Y-4.2
X3.775Y-2.8
X3.775Y-4.2
X3.875Y-2.8
X3.875Y-4.2
X3.975Y-2.8
X3.975Y-4.2
X4.075Y-2.8
X4.075Y-4.2
X4.175Y-2.8
X4.175Y-4.2
X4.275Y-2.8
X4.275Y-4.2
X4.375Y-2.8
X4.375Y-4.2
X4.475Y-2.8
X4.475Y-4.2
X4.575Y-2.8
X4.575Y-4.2
X4.675Y-2.8
X4.675Y-4.2
X4.775Y-2.8
X4.775Y-4.2
X4.875Y-2.8
X4.875Y-4.2
X4.975Y-2.8
X4.975Y-4.2
T4
X3.8331Y-3.8
X4.8168Y-3.8
X3.8331Y-3.2
X4.8168Y-3.2
T5
X3.525Y-3.
X3.525Y-4.
X5.125Y-2.8
X5.125Y-4.2
T0
M30
